<svg width="120" height="120" viewBox="0 0 120 120" fill="none" xmlns="http://www.w3.org/2000/svg">
<path d="M112.487 59.0833C112.487 52.9146 106.964 47.9139 100.151 47.9139C99.7126 47.9139 99.2803 47.9352 98.8543 47.9756L115.797 2.72803H43.7951L60.7146 47.9363C60.4663 47.9226 60.2169 47.9139 59.965 47.9139C53.1522 47.9139 47.6292 52.9146 47.6292 59.0833C47.6292 64.0698 51.2382 68.2911 56.2192 69.7273C53.5885 73.8537 50.278 77.57 46.5196 80.7808C41.409 85.1464 35.56 88.4565 29.2337 90.4965C21.7021 86.9929 18.1452 79.2016 21.3547 72.3699C21.7168 71.5984 22.0871 70.8166 22.4405 70.038C27.8973 68.8849 31.963 64.4558 31.963 59.1635C31.963 52.9948 26.4403 47.9941 19.6272 47.9941C12.8144 47.9941 7.29135 52.9948 7.29135 59.1635C7.29135 62.9464 9.37017 66.2876 12.5474 68.3082C9.49429 74.6028 5.00615 81.1903 3.60792 88.8253C1.93221 97.9755 3.6025 107.688 12.3426 113.173C32.6975 125.947 54.7927 105.254 78.089 100.053C86.532 98.1673 95.7996 98.4712 103.238 94.5702C108.824 91.6406 112.507 86.7859 113.552 81.3354C114.584 75.9509 113.079 70.5899 109.617 66.2429C111.408 64.3041 112.487 61.8083 112.487 59.0833Z" fill="#99425B"/>
<path d="M110.584 80.8683C109.676 85.6003 106.449 89.7337 101.728 92.2093C97.3282 94.5169 92.0552 95.2057 86.4726 95.9346C83.4818 96.325 80.3891 96.729 77.3679 97.4037C69.3795 99.1872 61.6421 102.667 54.1596 106.033C39.1851 112.767 26.2531 118.583 14.0591 110.931C5.12715 105.325 5.5396 94.9545 6.58021 89.2713C7.5446 84.006 10.1519 79.1571 12.6733 74.4674C13.1089 73.6567 13.5358 72.8609 13.9513 72.072C15.201 72.524 16.5302 72.8325 17.9158 72.9727C15.3492 80.6424 19.3854 88.9819 27.8574 92.9227L29.0167 93.462L30.2447 93.0662C36.9421 90.9064 43.1135 87.4408 48.5874 82.7645C52.1256 79.7419 55.1679 76.398 57.6683 72.8249C58.4178 72.9272 59.1846 72.9809 59.9652 72.9809C67.7406 72.9809 74.1795 67.7176 75.1758 60.9197C78.3585 60.8142 81.7392 60.8134 84.9403 60.9187C85.936 67.717 92.3752 72.9809 100.151 72.9809C103.402 72.9809 106.418 72.0583 108.902 70.4911C110.627 73.688 111.271 77.2851 110.584 80.8683ZM19.6274 50.7218C24.7684 50.7218 28.9504 54.5087 28.9504 59.1635C28.9504 60.8354 28.4087 62.3945 27.4784 63.7075C25.9283 65.8958 23.2948 67.396 20.2679 67.5831C20.0561 67.5962 19.8428 67.6052 19.6274 67.6052C18.4819 67.6052 17.3843 67.4159 16.3696 67.0724C14.317 66.3768 12.6067 65.0434 11.5308 63.3405C10.752 62.1078 10.3043 60.6824 10.3043 59.1635C10.3043 54.5087 14.4867 50.7218 19.6274 50.7218ZM50.6421 59.0833C50.6421 54.8541 54.0948 51.3424 58.5814 50.7351C59.033 50.6737 59.4952 50.6416 59.9652 50.6416C62.9539 50.6416 65.6148 51.9237 67.3215 53.9102C67.7457 54.4037 68.1136 54.9392 68.4097 55.511C68.9722 56.5967 69.2882 57.8069 69.2882 59.0833C69.2882 59.7582 69.1979 60.4142 69.0319 61.0436C68.1232 64.4877 64.8799 67.1199 60.9058 67.4822C60.5967 67.5103 60.2827 67.525 59.9652 67.525C58.1039 67.525 56.3697 67.0266 54.9125 66.1722C52.3456 64.6666 50.6421 62.0524 50.6421 59.0833ZM89.5531 49.0451C87.556 50.7755 86.0706 52.9863 85.331 55.4723C81.8787 55.355 78.2178 55.355 74.7854 55.4723C73.9969 52.8226 72.3616 50.485 70.162 48.7093L79.8089 31.0465L89.5531 49.0451ZM47.9975 5.45595H111.595L96.5738 45.5697C95.9227 45.7113 95.2877 45.8894 94.6712 46.1036L79.8327 18.6951L64.9523 45.9399C64.309 45.7394 63.6462 45.5779 62.9677 45.4554L47.9975 5.45595ZM109.474 59.0833C109.474 59.9298 109.334 60.7468 109.077 61.5183C108.465 63.3536 107.18 64.9263 105.484 66.0017C103.971 66.9603 102.133 67.525 100.151 67.525C95.8462 67.525 92.2149 64.8688 91.1475 61.2717C90.9402 60.5733 90.8278 59.84 90.8278 59.0833C90.8278 57.9293 91.0854 56.8291 91.5503 55.8266C91.7898 55.3099 92.0887 54.8216 92.4318 54.3628C94.1097 52.1207 96.9411 50.6416 100.151 50.6416C100.445 50.6416 100.736 50.6555 101.023 50.6797C105.756 51.0791 109.474 54.6948 109.474 59.0833ZM115.499 59.0833C115.499 52.2983 110.101 46.6372 102.99 45.4276L120 0H39.5934L56.6297 45.5201C49.7654 46.9031 44.6166 52.4573 44.6166 59.0833C44.6166 64.0585 47.5206 68.429 51.8726 70.8848C49.7793 73.7088 47.2967 76.3661 44.4524 78.7962C39.9407 82.65 34.9148 85.5724 29.4963 87.4954C24.0387 84.3912 21.7315 78.5373 24.1276 73.4373L24.3153 73.0377C24.4328 72.7881 24.5502 72.5379 24.6674 72.2878C30.662 70.3945 34.976 65.2283 34.976 59.1635C34.976 51.5 28.0906 45.2658 19.6274 45.2658C11.1642 45.2658 4.27875 51.5 4.27875 59.1635C4.27875 63.0315 6.0346 66.5342 8.86059 69.0562C8.34841 70.0445 7.80912 71.0498 7.25568 72.0791C4.67192 76.8844 1.74349 82.3308 0.635993 88.3787C-1.56364 100.39 1.98451 109.992 10.6267 115.415C15.871 118.706 21.1964 120 26.5559 120C36.6475 120 46.8557 115.409 56.84 110.919C64.0306 107.685 71.4662 104.341 78.8107 102.701C81.5433 102.091 84.3555 101.723 87.3327 101.335C93.2363 100.563 99.341 99.7664 104.748 96.9306C111.016 93.6432 115.307 88.1288 116.521 81.8018C117.562 76.3702 116.309 70.9298 113.252 66.3162C114.677 64.2078 115.499 61.731 115.499 59.0833Z" fill="white"/>
</svg>
