<svg width="120" height="120" viewBox="0 0 120 120" fill="none" xmlns="http://www.w3.org/2000/svg">
<path d="M57.5 10C40.9575 10 27.5 28.175 27.5 50.5125C27.5 62.5975 31.455 73.435 37.695 80.8525C37.575 81.385 37.5 81.9325 37.5 82.5C37.5 86.6425 40.8575 90 45 90C49.1425 90 52.5 86.6425 52.5 82.5C52.5 78.3575 49.1425 75 45 75C44.2125 75 43.47 75.155 42.7575 75.38C38.015 69.3275 35 60.4375 35 50.5125C35 32.31 45.0925 17.5 57.5 17.5C67.0925 17.5 75.2775 26.3675 78.51 38.795C81.315 39.66 84.1025 40.75 86.835 42.065C83.9475 23.77 71.8975 10 57.5 10Z" fill="#7E57C2"/>
<path d="M88.7675 50.21C78.9 44.23 67.8325 41.605 58.3125 42.8125C56.9375 41.11 54.8575 40 52.5 40C48.3575 40 45 43.3575 45 47.5C45 51.6425 48.3575 55 52.5 55C55.68 55 58.3825 53.0125 59.4725 50.22C67.2675 49.2725 76.5025 51.5475 84.88 56.6275C100.887 66.33 109.055 83.05 103.085 93.905C101.018 97.665 97.37 100.335 92.54 101.63C86.825 103.158 80.0225 102.615 73.2225 100.31C71.125 102.24 68.85 104.055 66.41 105.73C72.79 108.522 79.4 109.99 85.5825 109.99C88.6825 109.99 91.6775 109.622 94.48 108.872C101.333 107.04 106.582 103.112 109.658 97.5175C117.54 83.19 108.167 61.9675 88.7675 50.21Z" fill="#7E57C2"/>
<path d="M87.5 72.4801C87.5 68.3501 84.1425 65.0001 80 65.0001C75.8575 65.0001 72.5 68.3501 72.5 72.4801C72.5 74.1526 73.07 75.6826 74 76.9276C70.8025 83.9326 64.64 90.8451 56.345 95.8726C46.6825 101.733 35.8825 103.878 27.4575 101.628C22.6275 100.333 18.98 97.6626 16.9125 93.9026C12.6575 86.1676 15.61 75.4626 23.4375 66.4326C22.63 63.5726 22.0325 60.5826 21.6725 57.4951C8.99751 69.4876 3.90001 85.8026 10.3425 97.5176C13.4175 103.113 18.6675 107.04 25.52 108.873C28.3225 109.623 31.315 109.99 34.4175 109.99C42.7825 109.99 51.935 107.32 60.2325 102.29C69.8225 96.4776 76.94 88.3476 80.755 79.8851C84.5375 79.5026 87.5 76.3526 87.5 72.4801Z" fill="#7E57C2"/>
</svg>
