<svg width="308" height="132" viewBox="0 0 308 132" fill="none" xmlns="http://www.w3.org/2000/svg">
<g clip-path="url(#clip0_1242_201)">
<path d="M159.014 43.7215L173.668 42.6285C174.002 45.3932 174.615 47.4507 175.618 48.9295C177.234 51.2441 179.462 52.4015 182.415 52.4015C184.588 52.4015 186.315 51.8228 187.486 50.6012C188.6 49.6367 189.268 48.0936 189.268 46.4862C189.268 44.9431 188.656 43.4643 187.597 42.4999C186.483 41.3425 183.864 40.1852 179.741 39.1565C172.999 37.4205 168.152 35.1058 165.31 32.1482C162.469 29.3834 160.853 25.3328 160.965 21.025C160.965 18.0673 161.745 15.1097 163.193 12.6664C164.865 9.90171 167.149 7.71565 169.879 6.49402C172.832 5.01521 176.955 4.24365 182.137 4.24365C188.488 4.24365 193.336 5.59387 196.679 8.35861C200.022 11.059 202.028 15.4312 202.64 21.4107L188.154 22.3752C187.764 19.8033 186.984 17.9387 185.703 16.7171C184.421 15.4955 182.75 14.9168 180.577 14.9168C178.794 14.9168 177.457 15.3669 176.565 16.2027C175.729 16.9743 175.172 18.1316 175.228 19.4175C175.228 20.382 175.674 21.2821 176.342 21.8608C177.067 22.6324 178.794 23.3396 181.524 23.9826C188.266 25.6543 193.057 27.326 196.01 29.062C198.963 30.798 201.08 32.9197 202.362 35.4273C203.699 37.9991 204.368 40.9568 204.312 43.9787C204.312 47.5793 203.42 51.1798 201.637 54.2018C199.799 57.3523 197.236 59.7955 194.227 61.2743C191.051 62.8817 187.04 63.7176 182.248 63.7176C173.779 63.7176 167.929 61.853 164.642 58.0595C161.355 54.2661 159.404 49.5081 159.014 43.7215ZM3.51013 62.7532V5.27239H29.1954C33.9313 5.27239 37.6085 5.72246 40.1158 6.68691C42.5673 7.58705 44.7402 9.45164 46.1889 11.9592C47.8046 14.7239 48.5847 17.9387 48.5289 21.2821C48.6961 26.9402 46.1889 32.3411 41.8987 35.1701C40.2272 36.2631 38.3886 37.0347 36.4942 37.4205C37.8871 37.8705 39.28 38.6421 40.5058 39.5422C41.453 40.4424 42.233 41.4711 42.9573 42.5642C43.7931 43.6572 44.5174 44.8788 45.1302 46.1647L52.5962 62.8175H35.1013L26.8553 45.136C25.7967 42.8856 24.9052 41.4068 24.0695 40.6996C22.9551 39.7994 21.6179 39.3494 20.2808 39.3494H18.9436V62.6889H3.51013V62.7532ZM18.9436 28.5476H25.4624C26.8553 28.419 28.1925 28.1618 29.5297 27.776C30.5326 27.5832 31.424 26.9402 32.0369 25.9758C33.5412 23.6611 33.3184 20.382 31.4797 18.3888C30.4768 17.4244 28.5268 16.91 25.741 16.91H18.9436V28.5476ZM0 112.004L14.6534 110.911C14.9877 113.676 15.6006 115.733 16.6035 117.212C18.1635 119.527 20.4479 120.748 23.4009 120.748C25.5738 120.748 27.301 120.17 28.4711 118.948C29.5854 117.919 30.254 116.44 30.254 114.833C30.254 113.29 29.6411 111.811 28.5825 110.847C27.4682 109.689 24.8495 108.532 20.6708 107.503C13.9291 105.767 9.08177 103.453 6.24023 100.495C3.3987 97.7303 1.78292 93.6796 1.89436 89.3718C1.89436 86.4141 2.67439 83.4565 4.12301 81.0133C5.7945 78.2485 8.07887 76.0625 10.809 74.8408C13.7619 73.362 17.885 72.5905 23.0666 72.5905C29.4182 72.5905 34.2656 73.9407 37.6085 76.7054C40.9515 79.4702 42.9016 83.778 43.5145 89.7575L29.0282 90.722C28.6382 88.1501 27.8582 86.2856 26.5767 85.0639C25.3509 83.8423 23.6237 83.2636 21.4508 83.3279C19.6679 83.3279 18.3307 83.778 17.4392 84.6781C16.5478 85.4497 16.0463 86.607 16.102 87.8929C16.102 88.8574 16.5478 89.7575 17.2164 90.3362C17.9407 91.1078 19.6679 91.815 22.398 92.458C29.1397 94.1297 33.9313 95.8014 36.8842 97.5374C39.8372 99.2734 41.9544 101.395 43.2359 103.903C44.5731 106.475 45.2417 109.432 45.2417 112.39C45.2417 115.99 44.2945 119.527 42.5673 122.549C40.7287 125.699 38.1657 128.142 35.157 129.621C31.9812 131.229 27.9696 132.064 23.178 132.064C14.7091 132.064 8.8589 130.2 5.57164 126.406C2.28437 122.549 0.445731 117.791 0 112.004Z" fill="black"/>
<path d="M74.1027 107.503L87.5861 112.197C86.8618 116.119 85.3574 119.848 83.2959 123.127C81.4016 126.02 78.8943 128.271 76.0528 129.75C73.1555 131.228 69.4783 132 65.021 132C59.6165 132 55.1592 131.1 51.7605 129.3C48.3061 127.499 45.3531 124.284 42.8459 119.719C40.3386 115.154 39.1129 109.303 39.1129 102.167C39.1129 92.6507 41.2858 85.321 45.6874 80.2416C50.089 75.1622 56.2735 72.5903 64.2966 72.5903C70.5926 72.5903 75.4956 74.0691 79.1172 76.9625C82.683 79.9201 85.3574 84.4208 87.1404 90.4647L73.5456 93.9367C73.2113 92.5864 72.7098 91.2362 72.0412 90.0789C71.2055 88.7287 70.1469 87.6999 68.8654 86.9284C67.5839 86.1568 66.1353 85.8353 64.6867 85.8353C61.1765 85.8353 58.5021 87.4427 56.6635 90.7218C55.2706 93.1008 54.5463 96.8943 54.5463 102.038C54.5463 108.403 55.382 112.775 57.0535 115.154C58.725 117.533 61.0651 118.691 64.1295 118.691C67.0825 118.691 69.3111 117.726 70.8155 115.862C72.3198 113.868 73.4341 111.104 74.1027 107.503ZM105.582 73.5548H120.96V93.6795H137.787V73.5548H153.276V131.036H137.787V107.76H120.96V131.036H105.582V73.5548Z" fill="black"/>
<path d="M151.158 102.295C151.158 92.9078 153.443 85.578 157.956 80.37C162.469 75.162 168.821 72.5259 176.899 72.5259C185.201 72.5259 191.553 75.0977 196.066 80.2414C200.579 85.3851 202.808 92.5863 202.808 101.845C202.808 108.596 201.805 114.061 199.855 118.369C197.96 122.613 195.007 126.085 191.386 128.399C187.653 130.778 183.028 132 177.512 132C171.885 132 167.26 130.971 163.583 128.914C159.794 126.728 156.674 123.32 154.613 119.141C152.328 114.64 151.158 109.046 151.158 102.295ZM166.536 102.359C166.536 108.146 167.483 112.325 169.322 114.897C171.161 117.405 173.724 118.691 176.955 118.691C180.242 118.691 182.805 117.469 184.644 114.961C186.483 112.454 187.374 108.017 187.374 101.588C187.374 96.1869 186.427 92.2005 184.533 89.7572C182.638 87.2497 180.075 86.0281 176.844 86.0281C174.002 85.8995 171.272 87.314 169.378 89.8215C167.483 92.3291 166.536 96.5083 166.536 102.359ZM218.575 102.295C218.575 92.9078 220.86 85.578 225.373 80.37C229.886 75.162 236.237 72.5259 244.316 72.5259C252.618 72.5259 259.025 75.0977 263.483 80.2414C267.94 85.3851 270.224 92.5863 270.224 101.845C270.224 108.596 269.221 114.061 267.271 118.369C265.377 122.613 262.424 126.085 258.802 128.399C255.069 130.778 250.445 132 244.929 132C239.302 132 234.677 130.971 231 128.914C227.211 126.728 224.091 123.32 222.03 119.141C219.745 114.64 218.575 109.046 218.575 102.295ZM233.953 102.359C233.953 108.146 234.9 112.325 236.739 114.897C238.577 117.405 241.14 118.691 244.372 118.691C247.659 118.691 250.222 117.469 252.061 114.961C253.899 112.454 254.791 108.017 254.791 101.588C254.791 96.1869 253.844 92.2005 251.949 89.7572C250.055 87.2497 247.492 86.0281 244.26 86.0281C241.419 85.8995 238.633 87.314 236.794 89.8215C234.9 92.3291 233.953 96.5083 233.953 102.359Z" fill="black"/>
<path d="M268.609 73.5547H283.986V116.89H308V131.035H268.553V73.5547H268.609Z" fill="black"/>
<path d="M251.659 70.2375C267.141 56.7739 271.915 33.9509 262.322 19.2609C252.729 4.57096 232.402 3.57681 216.92 17.0404C201.438 30.504 196.664 53.327 206.257 68.017C215.85 82.707 236.177 83.7011 251.659 70.2375Z" fill="white"/>
<mask id="mask0_1242_201" style="mask-type:luminance" maskUnits="userSpaceOnUse" x="201" y="7" width="67" height="73">
<path d="M251.659 70.2375C267.141 56.7739 271.915 33.9509 262.322 19.2609C252.729 4.57096 232.402 3.57681 216.92 17.0404C201.438 30.504 196.664 53.327 206.257 68.017C215.85 82.707 236.177 83.7011 251.659 70.2375Z" fill="white"/>
</mask>
<g mask="url(#mask0_1242_201)">
<path d="M166.773 36.3535L246.778 -33.2206L302.138 51.5558L222.134 121.13L166.773 36.3535Z" fill="white"/>
<mask id="mask1_1242_201" style="mask-type:luminance" maskUnits="userSpaceOnUse" x="166" y="-34" width="137" height="156">
<path d="M166.773 36.3535L246.778 -33.2206L302.138 51.5558L222.134 121.13L166.773 36.3535Z" fill="white"/>
</mask>
<g mask="url(#mask1_1242_201)">
<path d="M251.659 70.2375C267.141 56.7739 271.915 33.9509 262.322 19.2609C252.729 4.57096 232.402 3.57681 216.92 17.0404C201.438 30.504 196.664 53.327 206.257 68.017C215.85 82.707 236.177 83.7011 251.659 70.2375Z" fill="white"/>
<mask id="mask2_1242_201" style="mask-type:luminance" maskUnits="userSpaceOnUse" x="201" y="7" width="67" height="73">
<path d="M251.659 70.2375C267.141 56.7739 271.915 33.9509 262.322 19.2609C252.729 4.57096 232.402 3.57681 216.92 17.0404C201.438 30.504 196.664 53.327 206.257 68.017C215.85 82.707 236.177 83.7011 251.659 70.2375Z" fill="white"/>
</mask>
<g mask="url(#mask2_1242_201)">
<path d="M189.051 42.0142L245.073 -6.70209L279.845 46.547L223.823 95.2633L189.051 42.0142Z" fill="white"/>
<mask id="mask3_1242_201" style="mask-type:luminance" maskUnits="userSpaceOnUse" x="189" y="-7" width="91" height="103">
<path d="M189.051 42.0142L245.073 -6.70209L279.845 46.547L223.823 95.2633L189.051 42.0142Z" fill="white"/>
</mask>
<g mask="url(#mask3_1242_201)">
<path d="M251.659 70.237C267.141 56.7734 271.915 33.9504 262.322 19.2604C252.729 4.57048 232.402 3.57632 216.92 17.0399C201.438 30.5036 196.664 53.3265 206.257 68.0165C215.85 82.7065 236.177 83.7006 251.659 70.237Z" fill="white" stroke="black" stroke-width="4" stroke-miterlimit="10"/>
</g>
<mask id="mask4_1242_201" style="mask-type:luminance" maskUnits="userSpaceOnUse" x="197" y="-4" width="75" height="97">
<path d="M197.035 75.106L217.412 -3.8195L271.909 13.4462L251.532 92.3717L197.035 75.106Z" fill="white"/>
</mask>
<g mask="url(#mask4_1242_201)">
<path d="M189.051 43.0127L245.911 -6.70205L279.845 45.5486L222.985 95.2633L189.051 43.0127Z" stroke="black" stroke-width="4" stroke-miterlimit="10"/>
</g>
<path d="M251.659 70.2375C267.141 56.7739 271.915 33.9509 262.322 19.2609C252.729 4.57096 232.402 3.57681 216.92 17.0404C201.438 30.504 196.664 53.327 206.257 68.017C215.85 82.707 236.177 83.7011 251.659 70.2375Z" stroke="black" stroke-width="4" stroke-miterlimit="10"/>
<path d="M189.051 42.0142L245.073 -6.70209L279.845 46.547L223.823 95.2633L189.051 42.0142Z" fill="white"/>
<mask id="mask5_1242_201" style="mask-type:luminance" maskUnits="userSpaceOnUse" x="189" y="-7" width="91" height="103">
<path d="M189.051 42.0142L245.073 -6.70209L279.845 46.547L223.823 95.2633L189.051 42.0142Z" fill="white"/>
</mask>
<g mask="url(#mask5_1242_201)">
<path d="M251.659 70.237C267.141 56.7734 271.915 33.9504 262.322 19.2604C252.729 4.57048 232.402 3.57632 216.92 17.0399C201.438 30.5036 196.664 53.3265 206.257 68.0165C215.85 82.7065 236.177 83.7006 251.659 70.237Z" fill="white" stroke="black" stroke-width="4" stroke-miterlimit="10"/>
</g>
<mask id="mask6_1242_201" style="mask-type:luminance" maskUnits="userSpaceOnUse" x="197" y="-4" width="75" height="97">
<path d="M197.035 75.106L217.412 -3.8195L271.909 13.4462L251.532 92.3717L197.035 75.106Z" fill="white"/>
</mask>
<g mask="url(#mask6_1242_201)">
<path d="M189.051 43.0127L245.911 -6.70205L279.845 45.5486L222.985 95.2633L189.051 43.0127Z" stroke="black" stroke-width="4" stroke-miterlimit="10"/>
</g>
<path d="M166.773 36.3535L246.778 -33.2206L302.138 51.5558L222.134 121.13L166.773 36.3535Z" stroke="black" stroke-width="4" stroke-miterlimit="10"/>
</g>
<path d="M251.659 70.2375C267.141 56.7739 271.915 33.9509 262.322 19.2609C252.729 4.57096 232.402 3.57681 216.92 17.0404C201.438 30.504 196.664 53.327 206.257 68.017C215.85 82.707 236.177 83.7011 251.659 70.2375Z" stroke="black" stroke-width="4" stroke-miterlimit="10"/>
<path d="M218.631 39.4136L224.203 34.9129L231.056 46.1647C232.226 47.965 233.117 49.8939 233.786 52.0156C234.176 53.6231 234.064 55.359 233.507 56.9022C232.783 58.831 231.613 60.4384 230.053 61.5958C228.214 63.0746 226.654 63.9104 225.317 64.1676C224.035 64.4248 222.698 64.1676 221.472 63.5247C220.135 62.7531 218.965 61.6601 218.074 60.2456L222.865 55.1019C223.255 55.8091 223.757 56.4521 224.314 56.9664C224.704 57.2879 225.15 57.4808 225.651 57.4808C226.041 57.4808 226.431 57.2879 226.71 57.0307C227.267 56.645 227.657 55.8734 227.601 55.1019C227.434 54.0088 227.044 52.9158 226.431 52.0799L218.631 39.4136ZM235.346 46.5505L240.416 41.9212C240.973 42.6927 241.698 43.2714 242.478 43.5929C243.592 43.9786 244.762 43.7214 245.709 42.8856C246.378 42.3712 246.935 41.664 247.158 40.7638C247.492 39.6065 246.935 38.3206 245.932 37.9348C245.765 37.8705 245.598 37.8062 245.431 37.8062C244.762 37.7419 243.592 38.0634 241.865 38.8992C239.023 40.2495 236.794 40.7638 235.123 40.5709C233.507 40.378 232.003 39.4136 231.111 37.8062C230.443 36.7132 230.109 35.4272 230.053 34.1413C230.053 32.6625 230.387 31.1837 231.111 29.9621C232.17 28.2261 233.452 26.7473 235.012 25.5899C237.352 23.7253 239.413 22.8252 241.196 22.8252C242.979 22.8252 244.65 23.7896 246.211 25.7828L241.196 30.3478C240.193 28.869 238.299 28.5476 237.017 29.7049L236.85 29.8978C236.293 30.2835 235.903 30.8622 235.68 31.5695C235.513 32.0838 235.624 32.6625 235.903 33.1126C236.126 33.4341 236.46 33.6912 236.85 33.6912C237.296 33.7555 238.076 33.4984 239.19 32.9197C241.976 31.5695 244.093 30.7979 245.542 30.5407C246.768 30.2835 248.049 30.4121 249.219 30.9908C250.278 31.5052 251.169 32.4053 251.782 33.4984C252.562 34.7843 253.008 36.3274 253.064 37.9348C253.119 39.6065 252.729 41.2139 251.949 42.6284C250.946 44.3644 249.665 45.8432 248.161 47.0005C245.096 49.4438 242.589 50.4725 240.583 50.0868C238.41 49.701 236.627 48.4151 235.346 46.5505Z" fill="black"/>
</g>
</g>
</g>
<defs>
<clipPath id="clip0_1242_201">
<rect width="308" height="132" fill="white"/>
</clipPath>
</defs>
</svg>
