<svg width="120" height="120" viewBox="0 0 120 120" fill="none" xmlns="http://www.w3.org/2000/svg">
<path d="M105 15H15V105H105V15Z" fill="#1976D2"/>
<path d="M68.725 55H35.5675V63.16H47.46V100H56.8825V63.16H68.725V55Z" fill="white"/>
<path d="M97.985 65.2101C97.985 65.2101 93.5175 62.2301 88.4675 62.2301C83.4175 62.2301 81.6 64.6301 81.6 67.1951C81.6 73.8151 100.052 73.1526 100.052 86.4751C100.052 106.998 71.9175 97.8951 71.9175 97.8951V88.0501C71.9175 88.0501 77.2975 92.1051 83.75 92.1051C90.2025 92.1051 89.9575 87.8851 89.9575 87.3051C89.9575 81.1826 71.67 81.1826 71.67 67.6101C71.67 49.1576 98.315 56.4376 98.315 56.4376L97.985 65.2101Z" fill="white"/>
</svg>
