<svg width="90" height="111" viewBox="0 0 90 111" fill="none" xmlns="http://www.w3.org/2000/svg">
<path d="M44.3984 56.826C50.3319 56.826 56.1321 55.1596 61.0655 52.0375C65.999 48.9154 69.8442 44.4779 72.1148 39.2862C74.3854 34.0944 74.9795 28.3815 73.822 22.8699C72.6644 17.3583 69.8072 12.2956 65.6116 8.32198C61.4161 4.34835 56.0706 1.64228 50.2511 0.54596C44.4317 -0.550361 38.3997 0.0123109 32.9179 2.16282C27.4361 4.31333 22.7508 7.95509 19.4543 12.6276C16.1579 17.3001 14.3984 22.7934 14.3984 28.413C14.4064 35.9463 17.5696 43.1688 23.194 48.4957C28.8184 53.8225 36.4444 56.8184 44.3984 56.826ZM44.3984 9.471C48.3541 9.471 52.2209 10.5819 55.5098 12.6633C58.7988 14.7447 61.3623 17.703 62.876 21.1642C64.3898 24.6254 64.7858 28.434 64.0141 32.1084C63.2424 35.7828 61.3376 39.1579 58.5406 41.807C55.7435 44.4561 52.1799 46.2601 48.3002 46.991C44.4206 47.7219 40.3993 47.3468 36.7448 45.9131C33.0902 44.4794 29.9667 42.0516 27.769 38.9366C25.5714 35.8216 24.3984 32.1594 24.3984 28.413C24.3984 23.3893 26.5056 18.5713 30.2563 15.019C34.007 11.4667 39.0941 9.471 44.3984 9.471Z" fill="#274C5B"/>
<path d="M45 63.645C33.0693 63.6576 21.6311 68.1518 13.1948 76.1418C4.75854 84.1318 0.0132343 94.9649 0 106.264C0 107.52 0.526784 108.725 1.46447 109.613C2.40215 110.501 3.67392 111 5 111C6.32608 111 7.59785 110.501 8.53553 109.613C9.47322 108.725 10 107.52 10 106.264C10 97.473 13.6875 89.0415 20.2513 82.825C26.815 76.6084 35.7174 73.116 45 73.116C54.2826 73.116 63.185 76.6084 69.7487 82.825C76.3125 89.0415 80 97.473 80 106.264C80 107.52 80.5268 108.725 81.4645 109.613C82.4021 110.501 83.6739 111 85 111C86.3261 111 87.5979 110.501 88.5355 109.613C89.4732 108.725 90 107.52 90 106.264C89.9868 94.9649 85.2415 84.1318 76.8052 76.1418C68.3689 68.1518 56.9307 63.6576 45 63.645Z" fill="#274C5B"/>
</svg>
