<svg width="40" height="56" viewBox="0 0 40 56" fill="none" xmlns="http://www.w3.org/2000/svg">
<path d="M2.35156 42.0684H19.7919H37.2322" stroke="#7EB693" stroke-width="2" stroke-miterlimit="10"/>
<path d="M6.29102 48.5L19.791 48.5L33.291 48.5" stroke="#7EB693" stroke-width="2" stroke-miterlimit="10"/>
<path d="M19.291 1.50002L19.291 8.50002L19.291 15.5" stroke="#7EB693" stroke-width="2" stroke-miterlimit="10"/>
<path d="M19.3652 14.7842V41.2158" stroke="#7EB693" stroke-width="2" stroke-miterlimit="10"/>
<path d="M30.4249 4.55275L19.3652 15.637" stroke="#7EB693" stroke-width="2" stroke-miterlimit="10"/>
<path d="M34.6787 8.81593L19.3652 24.1633" stroke="#7EB693" stroke-width="2" stroke-miterlimit="10"/>
<path d="M37.2309 15.6367L19.3652 32.6894" stroke="#7EB693" stroke-width="2" stroke-miterlimit="10"/>
<path d="M38.0817 23.3106L19.3652 42.0685" stroke="#7EB693" stroke-width="2" stroke-miterlimit="10"/>
<path d="M38.082 31.8369L27.873 42.0685" stroke="#7EB693" stroke-width="2" stroke-miterlimit="10"/>
<path d="M1.5 31.8369L11.709 42.0685" stroke="#7EB693" stroke-width="2" stroke-miterlimit="10"/>
<path d="M9.15625 4.55275L19.3652 15.637" stroke="#7EB693" stroke-width="2" stroke-miterlimit="10"/>
<path d="M4.90234 8.81593L19.365 24.1633" stroke="#7EB693" stroke-width="2" stroke-miterlimit="10"/>
<path d="M2.35156 14.7842L19.3665 32.6895" stroke="#7EB693" stroke-width="2" stroke-miterlimit="10"/>
<path d="M1.5 22.458L19.3657 41.2159" stroke="#7EB693" stroke-width="2" stroke-miterlimit="10"/>
<path d="M19.791 54.8579C9.69019 54.8579 1.5 46.4056 1.5 35.9772V20.0228C1.5 9.5963 9.69019 1.14211 19.791 1.14211C29.8937 1.14211 38.0821 9.5963 38.0821 20.0228V35.9772C38.0839 46.4056 29.8937 54.8579 19.791 54.8579Z" stroke="#7EB693" stroke-width="2" stroke-miterlimit="10"/>
</svg>
