<svg width="25" height="30" viewBox="0 0 25 30" fill="none" xmlns="http://www.w3.org/2000/svg">
<path d="M12.3398 15.3584C13.9221 15.3584 15.4688 14.908 16.7844 14.0642C18.1 13.2204 19.1254 12.0211 19.7309 10.6179C20.3364 9.21469 20.4948 7.67067 20.1861 6.18105C19.8774 4.69144 19.1155 3.32314 17.9967 2.24918C16.8779 1.17523 15.4524 0.44386 13.9006 0.147557C12.3487 -0.148746 10.7402 0.00332728 9.27838 0.584546C7.81657 1.16577 6.56714 2.15003 5.68809 3.41286C4.80904 4.67569 4.33984 6.16039 4.33984 7.67918C4.34196 9.71521 5.1855 11.6673 6.68533 13.1069C8.18516 14.5466 10.2188 15.3563 12.3398 15.3584ZM12.3398 2.55973C13.3947 2.55973 14.4258 2.85998 15.3029 3.42251C16.1799 3.98505 16.8635 4.7846 17.2672 5.72005C17.6709 6.65551 17.7765 7.68486 17.5707 8.67794C17.3649 9.67102 16.857 10.5832 16.1111 11.2992C15.3652 12.0152 14.4149 12.5027 13.3803 12.7003C12.3458 12.8978 11.2734 12.7964 10.2989 12.4089C9.32433 12.0215 8.49137 11.3653 7.90534 10.5234C7.3193 9.68151 7.00651 8.69172 7.00651 7.67918C7.00651 6.32142 7.56841 5.01927 8.56861 4.05918C9.5688 3.0991 10.9254 2.55973 12.3398 2.55973Z" fill="#FFFCFC"/>
<path d="M12.5 17.2014C9.31849 17.2048 6.26829 18.4194 4.01862 20.5789C1.76894 22.7383 0.503529 25.6662 0.5 28.7201C0.5 29.0596 0.640476 29.3851 0.890524 29.6251C1.14057 29.8652 1.47971 30 1.83333 30C2.18696 30 2.52609 29.8652 2.77614 29.6251C3.02619 29.3851 3.16667 29.0596 3.16667 28.7201C3.16667 26.344 4.15 24.0653 5.90034 22.3851C7.65068 20.705 10.0246 19.7611 12.5 19.7611C14.9754 19.7611 17.3493 20.705 19.0997 22.3851C20.85 24.0653 21.8333 26.344 21.8333 28.7201C21.8333 29.0596 21.9738 29.3851 22.2239 29.6251C22.4739 29.8652 22.813 30 23.1667 30C23.5203 30 23.8594 29.8652 24.1095 29.6251C24.3595 29.3851 24.5 29.0596 24.5 28.7201C24.4965 25.6662 23.2311 22.7383 20.9814 20.5789C18.7317 18.4194 15.6815 17.2048 12.5 17.2014Z" fill="#FFFCFC"/>
</svg>
