<svg width="1928" height="898" viewBox="0 0 1928 898" fill="none" xmlns="http://www.w3.org/2000/svg">
<mask id="mask0_2_14978" style="mask-type:alpha" maskUnits="userSpaceOnUse" x="4" y="0" width="1920" height="898">
<rect x="4" width="1920" height="898" fill="#E3F1E9"/>
</mask>
<g mask="url(#mask0_2_14978)">
<path d="M214.375 114.328C203.676 111.225 190.424 105.673 190.369 94.4559C190.345 86.844 195.502 79.8016 198.001 72.6492C202.805 58.8895 196.789 43.8673 186.568 33.1773C176.078 22.1919 160.655 14.4701 144.17 12.1976C136.073 11.0705 127.694 11.3063 119.738 13.1453C111.749 14.9853 104.099 18.3897 97.0243 22.0385C81.2814 30.1874 67.2742 41.0727 55.9522 53.4624C44.834 65.6384 35.8158 79.7654 32.4012 95.0151C30.8377 102.055 30.4497 109.417 31.8821 116.488C33.6175 124.985 38.4726 132.804 44.8594 139.373C57.9335 152.806 77.5222 161.737 97.3895 165.533C117.207 169.29 137.628 164.807 152.086 152.263C159.638 145.712 164.7 137.678 169.615 129.607C172.112 125.522 175.069 121.16 180.494 119.635C185.838 118.127 191.322 119.557 196.25 121.35C200.491 122.916 204.518 124.876 208.758 126.414C209.511 126.695 210.234 126.492 210.701 125.897C212.77 123.166 215.235 120.698 216.532 117.59C217.133 116.107 214.349 115.573 213.747 117.056C212.572 119.911 210.087 122.255 208.19 124.774C208.848 124.602 209.474 124.43 210.132 124.257C202.225 121.397 194.417 116.517 185.451 116.578C174.299 116.666 169.661 124.259 165.149 131.764C160.329 139.75 154.56 147.433 146.536 153.391C138.876 159.076 129.408 162.827 119.391 163.985C98.8724 166.371 76.9667 158.95 60.7534 148.71C52.4651 143.472 45.1419 136.988 40.1915 129.227C35.5641 121.967 33.6342 113.987 33.8804 105.704C34.3175 90.4923 41.5869 75.8261 51.2499 63.1846C61.3802 49.9482 74.6511 38.2848 89.6815 29.0806C103.139 20.8515 118.685 13.6482 135.579 13.9598C152.409 14.2734 168.77 20.9157 180.447 31.0487C191.776 40.9025 199.649 55.7696 195.859 69.8567C193.928 77.0602 189.192 83.5783 187.799 90.9169C186.298 98.9221 190.712 106.092 198.347 110.618C202.997 113.374 208.298 115.169 213.639 116.7C215.468 117.223 216.106 114.827 214.375 114.328Z" fill="#E1D4DB"/>
<path d="M204.59 115.384C198.511 113.054 192.17 111.161 186.352 108.364C183.518 107.012 180.839 105.406 178.537 103.427C175.967 101.18 174.258 98.4071 172.533 95.6484C167.149 86.9076 164.316 77.1582 158.259 68.7156C146.945 52.9834 125.62 43.2749 104.286 41.6592C92.3741 40.7589 80.3153 42.4683 69.5482 47.1025C67.8818 47.82 69.3907 49.8927 71.0413 49.1895C90.5092 40.8314 114.113 42.8607 132.664 51.617C142.533 56.2814 151.067 62.9278 156.716 71.3139C162.347 79.6589 165.124 89.1468 170.5 97.6107C173.81 102.828 177.7 106.807 183.705 109.916C189.842 113.077 196.706 115.064 203.229 117.561C204.905 118.201 206.283 116.038 204.59 115.384Z" fill="#E1D4DB"/>
<path d="M172.212 108.253C139.254 104.029 104.082 103.723 73.8349 90.6379C65.0568 86.8443 57.0723 81.9598 50.2369 75.9456C48.9696 74.8227 46.9975 76.615 48.2648 77.7379C72.9704 99.4135 109.61 104.158 143.338 107.597C152.759 108.56 162.192 109.426 171.572 110.627C173.363 110.875 174.02 108.487 172.212 108.253Z" fill="#E1D4DB"/>
<path d="M155.799 93.2469C135.409 71.5434 102.165 60.3842 70.1608 58.3705C68.3229 58.2482 68.4148 60.6973 70.236 60.8062C101.102 62.7449 133.67 73.579 153.339 94.5156C154.464 95.7408 156.924 94.4722 155.799 93.2469Z" fill="#E1D4DB"/>
<path d="M127.726 87.9727C114.44 86.4519 102.041 81.5663 90.9162 75.4083C89.3811 74.5565 88.0206 76.7316 89.5557 77.5834C100.862 83.8326 113.556 88.8198 127.069 90.3611C128.877 90.5674 129.565 88.178 127.726 87.9727Z" fill="#E1D4DB"/>
<path d="M161.583 118.203C147.332 121.861 132.672 124.868 117.748 124.59C101.77 124.276 87.071 119.729 73.0057 113.641C63.1962 109.397 53.215 104.315 47.4007 96.0992C46.4511 94.7454 43.9944 96.0403 44.9441 97.394C49.9949 104.513 58.0424 109.448 66.4181 113.46C74.2171 117.172 82.4104 120.526 90.8994 122.957C105.261 127.099 120.365 127.953 135.399 126.027C144.554 124.84 153.523 122.856 162.385 120.571C164.154 120.101 163.352 117.76 161.583 118.203Z" fill="#E1D4DB"/>
<path d="M156.966 127.876C146.61 137.742 133.04 144.792 117.772 147.221C100.407 149.966 82.8229 146.633 68.7434 137.701C60.2491 132.299 53.027 125.599 45.3347 119.411C44.0057 118.347 42.0192 120.124 43.3647 121.201C57.6696 132.712 71.1813 145.824 91.3964 149.35C106.92 152.056 123.196 150.272 137.391 144.046C145.607 140.442 152.889 135.415 159.059 129.552C160.286 128.352 158.209 126.689 156.966 127.876Z" fill="#E1D4DB"/>
<path d="M111.831 135.36C101.672 135.638 91.4645 133.8 83.4306 128.309C82.0059 127.33 80.0343 129.121 81.459 130.101C90.0898 136.016 100.938 138.124 111.89 137.807C113.753 137.763 113.677 135.302 111.831 135.36Z" fill="#E1D4DB"/>
<path d="M137.523 114.839C125.155 114.744 112.993 112.872 101.009 110.497C99.2152 110.138 98.5596 112.524 100.353 112.882C112.565 115.306 124.988 117.197 137.582 117.285C139.446 117.296 139.371 114.864 137.523 114.839Z" fill="#E1D4DB"/>
<path d="M74.6257 102.473C68.2828 100.012 62.0224 97.5901 57.3364 93.0537C56.1152 91.8865 54.1411 93.6807 55.3624 94.8479C60.2156 99.5454 66.7399 102.098 73.2966 104.649C74.9399 105.29 76.3181 103.127 74.6257 102.473Z" fill="#E1D4DB"/>
<path d="M70.8955 74.4752C64.9574 72.3634 59.328 69.7434 53.3741 67.6459C51.6846 67.0482 50.324 69.2234 52.0135 69.821C57.9517 71.9329 63.581 74.5529 69.535 76.6504C71.2403 77.2337 72.6017 75.0862 70.8955 74.4752Z" fill="#E1D4DB"/>
<path d="M183.567 84.5878C180.353 73.0472 178.093 60.839 169.433 51.2021C160.319 41.0665 146.73 33.7466 132.202 30.7524C123.754 29.0084 114.974 28.6469 106.307 29.2936C104.46 29.4348 104.535 31.8717 106.382 31.7305C125.968 30.2693 144.371 34.6661 159.242 45.6323C165.988 50.6035 171.095 56.6657 174.223 63.8157C177.246 70.7472 178.788 78.1133 180.812 85.298C181.249 86.8365 183.988 86.1129 183.567 84.5878Z" fill="#E1D4DB"/>
<path d="M184.47 52.045C180.769 46.3786 177.082 40.6148 172.056 35.6973C166.93 30.672 160.452 27.1315 152.967 25.1896C151.215 24.7316 150.557 27.1237 152.31 27.5816C159.566 29.4752 165.671 33.0414 170.551 37.9773C175.162 42.6166 178.547 48.0571 182.008 53.3427C182.911 54.715 185.357 53.4316 184.47 52.045Z" fill="#E1D4DB"/>
<path d="M227.538 204.815C230.311 197.552 230.116 188.613 227.126 181.476C225.062 176.563 220.313 170.173 213.05 171.577C206.689 172.814 204.007 179.341 204.078 184.274C204.168 189.816 206.001 195.676 209.339 200.424C210.983 202.764 213.208 205.058 216.177 206.251C219.294 207.507 222.591 207.238 225.679 205.993C227.359 205.318 225.854 203.25 224.189 203.911C213.116 208.352 207.809 192.84 207.074 186.351C206.605 182.176 207.344 176.733 212.215 174.437C217.755 171.816 222.442 177.752 224.046 181.434C227.116 188.5 227.509 197.059 224.752 204.308C224.182 205.791 226.969 206.326 227.538 204.815Z" fill="#E1D4DB"/>
<path d="M225.398 204.345C221.922 199.431 220.336 193.739 218.561 188.245C218.076 186.725 215.31 187.448 215.81 188.955C217.656 194.639 219.362 200.536 222.956 205.626C223.889 206.966 226.363 205.685 225.398 204.345Z" fill="#E1D4DB"/>
<path d="M206.006 210.746C201.612 208.062 197.123 205.492 192.448 203.149C187.114 200.467 181.155 197.528 174.923 196.742C172.727 196.465 170.279 196.473 168.386 197.625C166.302 198.895 165.722 201.126 165.77 203.186C165.837 206.42 166.915 209.817 169.23 212.373C171.882 215.305 175.687 217.274 179.728 218.489C188.382 221.08 200.474 220.576 205.905 213.253C206.901 211.922 204.354 210.798 203.374 212.115C199.142 217.837 189.526 218.222 182.687 216.708C178.917 215.872 175.239 214.328 172.539 211.923C170.106 209.758 168.981 206.916 168.679 203.952C168.584 202.987 168.552 201.964 168.896 201.026C169.105 200.439 169.526 199.914 169.924 199.666C171.18 198.866 173.062 198.945 174.772 199.209C180.325 200.044 185.558 202.591 190.364 204.958C193.195 206.363 195.964 207.853 198.686 209.385C199.742 209.989 200.798 210.592 201.855 211.222C202.301 211.499 202.746 211.748 203.193 212.024C203.589 212.261 203.886 212.445 204.035 212.537C205.521 213.431 207.509 211.653 206.006 210.746Z" fill="#E1D4DB"/>
<path d="M203.795 211.924C197.623 211.053 191.776 209.147 185.829 207.646C184.064 207.203 183.408 209.59 185.173 210.033C191.12 211.534 196.967 213.439 203.139 214.311C204.946 214.572 205.618 212.171 203.795 211.924Z" fill="#E1D4DB"/>
<path d="M194.551 186.073C193.415 179.741 191.951 172.77 187.123 167.662C184.172 164.543 179.778 161.401 175.019 160.665C172.983 160.355 170.849 160.588 169.265 161.829C167.444 163.256 166.961 165.458 166.828 167.456C166.502 172.67 170.345 177.366 174.743 180.619C179.556 184.177 185.854 186.983 192.336 187.346C194.172 187.441 194.08 184.994 192.261 184.913C187.534 184.66 182.851 182.689 179.05 180.401C174.935 177.914 171.098 174.436 169.943 170.112C169.21 167.395 169.578 162.511 174.086 163.02C178.024 163.449 181.708 166.13 184.264 168.555C189.16 173.231 190.605 180.134 191.683 186.149C191.958 187.69 194.826 187.614 194.551 186.073Z" fill="#E1D4DB"/>
<path d="M192.878 184.233C188.98 181.111 185.51 177.656 181.612 174.533C180.28 173.466 178.287 175.248 179.637 176.329C183.535 179.451 187.005 182.906 190.903 186.029C192.252 187.11 194.227 185.314 192.878 184.233Z" fill="#E1D4DB"/>
<path d="M1686.14 68.1939C1712.12 77.4832 1749.53 79.1688 1773.4 60.3972C1774.06 59.8882 1773.99 59.0336 1773.5 58.5215C1768.16 53.1089 1759.55 50.4117 1751.85 48.1777C1742.65 45.4977 1733.57 43.8439 1723.57 44.0976C1714.36 44.3284 1706.13 46.1805 1697.74 50.1252C1693.53 52.0926 1689.49 54.3667 1685.53 56.699C1683.76 57.7461 1681.99 58.812 1680.23 59.8877C1679 60.6415 1677.34 61.2925 1676.55 62.4342C1676.09 63.1079 1676.37 63.8435 1677.02 64.2069C1679.86 65.8735 1683.12 66.8179 1686.14 68.1939C1687.8 68.9465 1689.44 66.6169 1687.76 65.8544C1684.74 64.4784 1681.48 63.534 1678.65 61.896C1678.81 62.4964 1678.97 63.0969 1679.12 63.6687C1679.65 62.9014 1682.13 61.849 1683.12 61.2517C1684.77 60.2498 1686.44 59.2578 1688.1 58.2845C1691.68 56.1913 1695.33 54.1564 1699.12 52.3897C1707.22 48.6005 1715.1 46.9313 1723.99 46.7416C1733.26 46.5405 1741.64 48.1049 1750.19 50.5448C1757.62 52.6504 1766.09 55.2311 1771.25 60.4602C1771.28 59.8255 1771.32 59.2193 1771.35 58.5845C1759.85 67.6184 1744.64 71.3279 1730.04 71.9862C1715.5 72.6456 1700.83 70.5242 1687.73 65.8445C1686.02 65.2426 1684.38 67.5722 1686.14 68.1939Z" fill="#DBDBDB"/>
<path d="M1681.62 63.9218C1697.32 61.1686 1713.19 59.9937 1728.96 59.6995C1735.76 59.574 1742.53 59.1634 1749.33 58.8673C1756.43 58.5675 1763.76 58.4524 1770.4 60.4493C1772.19 60.9866 1773.08 58.3944 1771.29 57.8571C1764.89 55.9502 1757.81 55.9088 1750.96 56.1565C1743.66 56.4147 1736.39 56.9106 1729.1 57.0455C1713.04 57.3532 1696.96 58.5999 1680.99 61.3952C1679.02 61.7464 1679.71 64.274 1681.62 63.9218Z" fill="#DBDBDB"/>
<path d="M1762.18 61.191C1745.83 64.7316 1729.19 68.6066 1712.57 67.7426C1710.65 67.64 1710.54 70.2719 1712.46 70.3745C1729.32 71.2524 1746.24 67.3168 1762.83 63.7146C1764.75 63.2981 1764.09 60.7931 1762.18 61.191Z" fill="#DBDBDB"/>
<path d="M1738.06 51.4591C1728.57 50.852 1719.17 52.2522 1709.7 53.8215C1707.76 54.1346 1708.45 56.6547 1710.36 56.3318C1719.61 54.8056 1728.74 53.4947 1737.97 54.0779C1739.89 54.228 1739.97 51.5807 1738.06 51.4591Z" fill="#DBDBDB"/>
<path d="M1708.09 62.8764C1704.02 62.617 1700.02 61.9405 1695.89 62.0032C1695.07 62.0063 1694.35 62.6865 1694.32 63.3991C1694.28 64.1304 1694.97 64.6856 1695.81 64.6638C1699.94 64.6011 1703.94 65.2775 1708.01 65.5369C1708.83 65.5813 1709.55 64.8062 1709.57 64.1411C1709.59 63.3712 1708.9 62.9395 1708.09 62.8764Z" fill="#DBDBDB"/>
<path d="M1659.39 44.3045C1687.9 42.0468 1722.63 28.9216 1734.88 3.8493C1735.24 3.1392 1734.54 2.51143 1733.89 2.29407C1726.15 -0.228037 1716.71 0.913653 1708.49 2.05058C1699.39 3.31064 1690.9 5.22452 1682.45 8.92703C1673.98 12.6382 1667.15 17.2655 1661.3 23.8854C1658.3 27.2916 1655.66 30.9188 1653.11 34.5944C1651.98 36.2301 1650.86 37.8938 1649.74 39.5392C1648.96 40.7067 1647.79 41.9039 1647.64 43.2326C1647.59 43.7436 1648.08 44.3954 1648.71 44.454C1652.26 44.7919 1655.81 44.3198 1659.39 44.3045C1661.31 44.2945 1661.41 41.6988 1659.5 41.7088C1656.19 41.7108 1652.84 42.2054 1649.57 41.9287C1649.92 42.3451 1650.27 42.7336 1650.63 43.15C1650.72 42.3139 1652.58 40.2917 1653.2 39.3912C1654.25 37.8377 1655.3 36.2842 1656.39 34.7502C1658.7 31.4518 1661.11 28.2019 1663.83 25.1255C1669.42 18.7986 1676.17 14.4771 1684.26 10.9727C1692.34 7.48667 1700.53 5.74383 1709.21 4.57826C1716.97 3.53481 1725.77 2.50195 1733.02 4.86588C1732.69 4.33812 1732.36 3.83842 1732.03 3.31065C1726.13 15.367 1714.11 24.3547 1701.14 30.5591C1688.21 36.7365 1673.78 40.5945 1659.52 41.7185C1657.59 41.8678 1657.48 44.4635 1659.39 44.3045Z" fill="#DBDBDB"/>
<path d="M1652.77 42.6245C1666.05 33.9812 1680.27 26.668 1694.93 20.1544C1700.97 17.4779 1706.82 14.4906 1712.77 11.6728C1718.75 8.84628 1725.08 6.06359 1731.73 5.22292C1733.62 4.97981 1733.74 2.39484 1731.83 2.62826C1718.77 4.27692 1707.31 11.8847 1695.56 17.0581C1680.21 23.8004 1665.28 31.379 1651.39 40.4204C1649.82 41.4513 1651.2 43.6554 1652.77 42.6245Z" fill="#DBDBDB"/>
<path d="M1724.78 9.29989C1711.82 18.5277 1698.74 28.2076 1683.34 33.8634C1681.55 34.5151 1682.19 36.9946 1683.99 36.3247C1699.92 30.4844 1713.37 20.6169 1726.79 11.0733C1728.32 9.98072 1726.3 8.22559 1724.78 9.29989Z" fill="#DBDBDB"/>
<path d="M1698.25 9.65062C1689.27 12.8159 1681.42 17.5739 1673.57 22.5735C1671.98 23.5935 1673.35 25.7954 1674.94 24.7754C1682.56 19.9292 1690.19 15.2135 1698.9 12.1176C1700.71 11.4737 1700.06 9.00676 1698.25 9.65062Z" fill="#DBDBDB"/>
<path d="M1677.38 31.2957C1673.4 32.7084 1669.29 33.7349 1665.43 35.4493C1664.72 35.7728 1664.41 36.6841 1664.77 37.2525C1665.2 37.8783 1666.03 38.0063 1666.8 37.6839C1667.74 37.2526 1668.48 36.9671 1669.39 36.6379C1670.36 36.2912 1671.33 35.9728 1672.31 35.6544C1674.22 35.0448 1676.12 34.4818 1678.01 33.8157C1678.76 33.5584 1679.38 32.8964 1679.14 32.1899C1678.99 31.5507 1678.19 31.0209 1677.38 31.2957Z" fill="#DBDBDB"/>
<path d="M1963.9 -70.2934C1981.74 -47.6564 1995.84 -22.74 2009.85 1.66279C2015.94 12.2718 2021.63 23.1102 2026.17 34.2396C2030.38 44.6018 2034.05 55.6612 2033.88 66.5053C2033.81 71.6721 2033.24 79.4224 2026.79 81.498C2021.96 83.0471 2015.89 81.1941 2011.07 79.8755C2002.56 77.5221 1988.49 71.8265 1982.96 80.4596C1979.96 85.1537 1980.84 91.0232 1982.24 96.2505C1984.14 103.312 1987.18 110.162 1989.57 117.092C1991.88 123.819 1994.32 131.461 1992.41 138.268C1990.46 145.169 1982.71 149.672 1974.44 149.514C1964.93 149.316 1956.09 143.472 1948.59 138.675C1941.52 134.129 1934.33 128.773 1925.95 126.343C1917.39 123.877 1910.09 126.858 1904.07 131.66C1896.11 137.98 1890.42 146.17 1883.98 153.614C1877.51 161.113 1870.59 167.307 1860.56 171.258C1852.83 174.301 1839.86 177.923 1832.74 170.931C1825.04 163.35 1828.24 150.688 1830.74 142.387C1833.93 131.746 1838.75 121.57 1843.2 111.36C1844.96 107.29 1846.68 103.21 1848.14 99.0611C1848.53 97.9206 1847.1 96.8543 1845.89 96.864C1837.31 96.9534 1828.48 95.6304 1820.09 93.6316C1811.89 91.6694 1801.7 88.6748 1796.16 82.4894C1789.65 75.2252 1796.18 66.9525 1802.75 62.4432C1811.3 56.5298 1821.97 53.0735 1831.76 48.8686C1841.71 44.6116 1852.9 39.2993 1856.79 29.6825C1857.17 28.7652 1856.85 27.7748 1855.72 27.2433C1844.21 21.6995 1831.54 17.5167 1821.16 10.2756C1817.22 7.54117 1812.58 3.67884 1812.78 -0.925446C1813.07 -7.45276 1821.84 -12.0027 1827.6 -14.607C1837.49 -19.081 1848.62 -21.0639 1859.5 -23.3005C1867.16 -24.8906 1879.15 -25.486 1881.3 -33.6283C1881.79 -35.4934 1880.91 -36.45 1879.57 -37.8496C1877.25 -40.328 1878.06 -43.5109 1878.02 -46.4917C1877.97 -48.0906 1877.48 -50.6432 1878.48 -52.0561C1879.57 -53.6586 1882.93 -54.1736 1884.85 -54.685C1896.81 -57.9891 1909.29 -59.8503 1921.54 -62.436C1928.33 -63.8881 1935.37 -64.735 1942.22 -66.0496C1949.53 -67.4408 1956.8 -68.9849 1964.07 -70.5289C1966.62 -71.0803 1965.19 -74.5191 1962.62 -73.9921C1949.57 -71.2104 1936.47 -68.6457 1923.23 -66.4601C1916.93 -65.427 1910.74 -63.9201 1904.49 -62.774C1898.25 -61.6278 1891.99 -60.4419 1885.92 -58.7883C1881.47 -57.5971 1875.15 -56.6527 1874.03 -52.0633C1873.48 -49.7365 1873.86 -47.1227 1873.88 -44.7258C1873.93 -41.7848 1873.4 -38.8343 1875.69 -36.3009C1876.1 -35.8272 1877.21 -35.2163 1877.25 -34.6721C1877.45 -32.4863 1872.96 -29.9223 1871.14 -29.3926C1865.93 -27.8372 1860.06 -27.1131 1854.64 -26.0101C1843.06 -23.6632 1831.34 -21.1358 1821.26 -15.7078C1815.83 -12.7919 1809.76 -8.35013 1808.71 -2.48894C1807.91 1.95663 1810.51 6.11945 1814.04 9.43499C1824.64 19.3816 1840.67 24.1194 1853.96 30.4665C1853.58 29.6503 1853.26 28.8434 1852.89 28.0273C1848.89 37.9528 1836.39 42.8652 1826.16 47.107C1815.7 51.4712 1803.94 55.3316 1795.91 62.752C1790.27 67.9793 1786.59 75.8196 1791.47 82.8675C1796.22 89.7442 1805.97 93.3749 1814.25 95.7865C1824.45 98.7811 1835.56 100.592 1846.15 100.465C1845.4 99.7196 1844.67 98.9985 1843.9 98.2681C1840.29 108.539 1835.28 118.327 1831.19 128.443C1827.46 137.76 1823.49 147.774 1823.82 157.951C1824.1 166.282 1827.77 175.425 1838.23 177.85C1847.92 180.105 1858.38 176.588 1866.47 172.772C1876.22 168.206 1882.85 161.111 1889.26 153.474C1895.6 145.908 1901.64 136.92 1910.77 131.636C1919.17 126.765 1927.58 130.13 1935.6 134.884C1943.94 139.845 1951.64 145.837 1960.7 149.786C1969.06 153.43 1978.04 154.389 1986.07 150.643C1992.88 147.482 1996.54 141.742 1996.94 135.01C1997.81 120.053 1987.41 106.245 1985.18 91.5869C1984.53 87.3927 1984.72 80.9907 1990.36 79.7256C1995.34 78.6198 2001.55 80.9558 2006.34 82.3295C2016.78 85.3301 2030.72 89.0813 2035.73 78.1984C2039.39 70.2296 2037.97 60.3126 2035.97 51.8908C2033.22 40.247 2028.4 28.919 2022.88 17.949C2017.53 7.23884 2011.41 -3.21112 2005.07 -13.5785C1997.08 -26.7272 1989.54 -40.0962 1980.97 -52.9878C1976.61 -59.5192 1972.01 -65.9129 1967.07 -72.1475C1965.72 -74.1861 1962.33 -72.2738 1963.9 -70.2934Z" fill="#DBDBDB"/>
<path d="M1962.49 -74.6419C1955.38 -43.047 1938.65 -14.1089 1923.48 14.6347C1915.53 29.6722 1907.84 44.8447 1899.6 59.7625C1890.91 75.5042 1882.03 91.1692 1873.65 107.055C1869.06 115.719 1864.62 124.475 1860.46 133.327C1858.38 137.732 1856.37 142.172 1854.45 146.629C1852.46 151.238 1851.18 156.009 1849.24 160.627C1848.36 162.757 1852.15 164.458 1853.06 162.312C1854.63 158.512 1855.63 154.537 1857.22 150.762C1858.94 146.701 1860.72 142.673 1862.58 138.64C1866.3 130.573 1870.24 122.591 1874.34 114.702C1882.69 98.5825 1891.63 82.7023 1900.43 66.7945C1909.01 51.2988 1917.13 35.6311 1925.35 19.9819C1933.02 5.34722 1940.97 -9.19231 1948.14 -24.0726C1955.82 -40.0966 1962.71 -56.5658 1966.58 -73.8172C1967.14 -76.092 1963 -76.8859 1962.49 -74.6419Z" fill="#DBDBDB"/>
<path d="M1889.89 130.801C1888.68 124.136 1887.68 117.428 1886.87 110.718C1885.94 103.119 1885.07 95.3858 1885.51 87.8292C1885.61 86.0774 1883.31 84.8637 1881.84 86.2225C1872.07 95.1809 1860.66 102.663 1851.08 111.762C1849.34 113.417 1852.57 115.866 1854.32 114.211C1863.9 105.112 1875.31 97.6302 1885.08 88.6717C1883.86 88.1229 1882.61 87.5894 1881.41 87.065C1880.94 94.7803 1881.72 102.599 1882.67 110.326C1883.5 117.204 1884.52 124.08 1885.76 130.937C1886.15 133.219 1890.3 133.108 1889.89 130.801Z" fill="#DBDBDB"/>
<path d="M1941.03 117.193C1922.4 94.9721 1916.14 68.9763 1910.52 43.0438C1910.31 42.0395 1909.05 40.8901 1907.75 41.3733C1888.11 48.9635 1868.03 55.7104 1848.31 63.1642C1845.93 64.0484 1847.34 67.5009 1849.75 66.6014C1869.46 59.1477 1889.54 52.4008 1909.19 44.8106C1908.27 44.2406 1907.34 43.71 1906.42 43.14C1912.19 69.655 1918.6 96.3365 1937.68 119.076C1939.25 121.002 1942.64 119.128 1941.03 117.193Z" fill="#DBDBDB"/>
<path d="M1968.95 65.701C1951.95 45.6921 1943.85 21.3418 1936.1 -1.87278C1935.73 -3.03276 1933.98 -3.4571 1932.96 -2.87954C1915.17 6.92994 1893.43 10.2451 1875.65 20.0151C1873.47 21.2067 1875.85 24.2578 1878.06 23.051C1895.82 13.2567 1917.57 9.96582 1935.37 0.156333C1934.33 -0.171153 1933.27 -0.522919 1932.23 -0.850405C1940.11 22.6769 1948.37 47.3248 1965.57 67.6009C1967.2 69.4982 1970.57 67.5984 1968.95 65.701Z" fill="#DBDBDB"/>
<path d="M1988.65 24.0327C1979.08 2.08579 1966.3 -18.7534 1955.77 -40.3998C1955.36 -41.2571 1954.16 -41.9836 1953.1 -41.5982C1934.59 -34.9883 1913.21 -36.3669 1895.07 -28.8452C1892.73 -27.8743 1895.16 -24.8608 1897.47 -25.8166C1915.23 -33.1896 1936.36 -31.6745 1954.52 -38.1902C1953.62 -38.5927 1952.76 -38.9861 1951.86 -39.3886C1962.4 -17.7815 1975.17 3.09702 1984.74 25.044C1985.7 27.2372 1989.59 26.2017 1988.65 24.0327Z" fill="#DBDBDB"/>
<path d="M886.614 75.7397C875.167 67.8631 861.559 60.5294 847.498 58.9967C834.161 57.5353 823.26 63.0197 817.469 73.0325C812.196 82.1446 810.697 93.2235 810.487 103.789C810.254 115.6 811.73 127.935 815.898 139.63C818.864 147.907 823.33 156.831 832.512 161.291C840.527 165.199 849.62 164.53 857.492 162.614C867.091 160.288 875.841 156.009 883.957 151.269C891.588 146.847 899.404 141.93 905.609 136.026C913.596 128.431 917.776 118.12 913.968 106.984C909.581 94.1544 898.029 84.9837 887.454 75.6981C886.031 74.4519 883.821 76.0112 885.255 77.2772C894.246 85.1611 904.019 92.7624 909.272 103.114C913.811 112.035 913.294 121.261 907.933 128.835C903.03 135.72 895.27 140.736 887.93 145.457C880.769 150.042 873.166 154.24 864.94 157.354C857.497 160.186 848.887 162.512 840.25 161.065C831.326 159.555 825.406 153.512 821.742 146.272C816.654 136.265 814.559 125.2 813.749 114.717C812.913 103.864 813.422 92.7384 816.638 82.6094C820.208 71.3295 828.491 61.558 842.888 61.3996C857.784 61.2272 872.992 69.5765 884.998 77.8221C886.621 78.9247 888.216 76.8499 886.614 75.7397Z" fill="#D3CBCF"/>
<path d="M891.449 74.9358C888.667 72.6084 886.092 69.8259 885.318 66.5354C884.68 63.8145 885.427 61.1647 886.689 58.8521C889.65 53.4508 894.854 49.3099 899.169 44.8471C901.422 42.534 903.587 40.1094 904.958 37.2104C904.007 36.9589 903.035 36.715 902.063 36.4712C899.847 49.4814 903.028 66.7067 888.946 74.1262C887.394 74.9485 889.406 77.0778 890.969 76.2753C905.831 68.4309 902.695 50.5948 905.038 36.8958C905.302 35.3487 902.719 34.9011 902.132 36.1367C899.482 41.6875 893.852 45.792 889.611 50.2517C885.517 54.5631 881.14 59.9284 882.292 66.2957C883.013 70.2718 885.939 73.7368 889.26 76.5358C890.715 77.7475 892.926 76.1873 891.449 74.9358Z" fill="#D3CBCF"/>
<path d="M891.967 75.377C900.1 69.0563 911.068 64.4003 922.77 67.3148C922.368 66.5772 921.967 65.8397 921.565 65.1021C918.572 69.5157 913.236 72.3548 907.832 74.0637C902.428 75.7727 895.9 76.6152 890.058 74.4547C888.172 73.769 887.241 76.2725 889.127 76.9581C895.616 79.3488 902.734 78.5849 908.802 76.7555C914.816 74.9216 920.835 71.7094 924.128 66.7928C924.728 65.8848 924.072 64.8718 922.923 64.5801C910.467 61.4753 898.541 66.4327 889.889 73.1401C888.495 74.2653 890.562 76.4817 891.967 75.377Z" fill="#D3CBCF"/>
<path d="M889.571 75.1467C873.128 68.2402 866.01 50.356 873.191 37.0849C872.374 37.1737 871.556 37.2625 870.748 37.3243C873.582 40.1114 876.703 42.6539 879.516 45.4485C882.192 48.0833 885.008 51.1099 885.519 54.6285C885.768 56.3085 888.583 56.0262 888.366 54.3581C887.286 46.8526 878.331 41.1039 872.884 35.7522C872.045 34.9401 870.897 35.1495 870.441 35.9917C862.592 50.532 870.902 70.0086 888.699 77.4924C890.45 78.2514 891.332 75.8787 889.571 75.1467Z" fill="#D3CBCF"/>
<path d="M844.398 68.7855C842.849 70.488 842.468 72.7444 842.012 74.9091C841.953 75.2162 842.173 75.6606 842.411 75.908C842.649 76.1553 843.057 76.3888 843.43 76.4207C843.835 76.4648 844.239 76.4142 844.512 76.1727C844.817 75.9434 844.919 75.6684 844.977 75.314C844.968 75.3888 844.898 75.6761 844.977 75.314C844.987 75.2391 845.018 75.1566 845.027 75.0818C845.057 74.9519 845.076 74.8022 845.106 74.6724C845.166 74.4126 845.215 74.1331 845.296 73.8657C845.416 73.3936 845.537 72.9215 845.689 72.4617C845.75 72.2493 845.843 72.0492 845.935 71.849C845.987 71.7588 846.028 71.6488 846.08 71.5587C846.1 71.5037 846.121 71.4487 846.152 71.4135C846.266 71.2057 845.987 71.7115 846.1 71.5037C846.339 71.1079 846.6 70.7519 846.893 70.408C847.353 69.9083 847.093 68.9308 846.417 68.5324C845.708 68.1219 844.879 68.2307 844.398 68.7855Z" fill="#D3CBCF"/>
<path d="M869.981 81.4048C869.722 82.6447 869.217 83.8065 868.636 84.9239C868.594 84.9868 868.574 85.042 868.532 85.1048C868.626 84.9515 868.584 85.0144 868.522 85.1324C868.449 85.278 868.366 85.4037 868.293 85.5493C868.137 85.8206 867.96 86.0996 867.793 86.351C867.438 86.909 867.063 87.4747 866.687 88.0403C866.311 88.606 866.41 89.4779 867.164 89.9219C867.822 90.3292 868.815 90.3287 869.232 89.7002C870.714 87.4452 872.27 85.1397 872.838 82.4745C872.917 82.1113 872.934 81.8186 872.737 81.4601C872.572 81.1613 872.214 80.8366 871.871 80.7219C871.163 80.5001 870.13 80.7059 869.981 81.4048Z" fill="#D3CBCF"/>
<path d="M897.727 101.416C897.72 101.681 897.713 101.946 897.707 102.21C897.698 102.333 897.689 102.455 897.659 102.586C897.65 102.661 897.629 102.716 897.62 102.791C897.62 102.838 897.56 103.051 897.609 102.818C897.659 102.586 897.599 102.798 897.599 102.846C897.59 102.921 897.569 102.976 897.56 103.051C897.53 103.181 897.479 103.319 897.449 103.449C897.378 103.689 897.274 103.917 897.171 104.145C897.109 104.263 897.068 104.374 897.006 104.491C896.902 104.672 897.006 104.492 897.037 104.409C896.995 104.472 896.974 104.527 896.933 104.589C896.797 104.805 896.641 105.029 896.484 105.252C896.328 105.476 896.139 105.687 895.971 105.891C895.856 106.004 895.762 106.11 895.646 106.223C895.562 106.301 895.372 106.418 895.667 106.216C895.593 106.266 895.552 106.329 895.478 106.38C895.204 106.622 895.016 106.88 895.011 107.24C894.984 107.56 895.14 107.981 895.41 108.241C895.941 108.741 896.958 109.018 897.527 108.526C898.557 107.581 899.405 106.535 899.994 105.297C900.5 104.231 900.738 103.048 900.72 101.862C900.72 101.17 900.154 100.42 899.31 100.319C898.53 100.243 897.726 100.677 897.727 101.416Z" fill="#D3CBCF"/>
<path d="M849.099 89.5421C848.174 91.5382 847.24 93.609 847.264 95.9032C847.264 96.5917 847.828 97.3379 848.668 97.438C849.422 97.5214 850.244 97.0822 850.243 96.3464C850.224 95.8071 850.29 95.2846 850.378 94.7544C850.377 94.7072 850.398 94.6523 850.418 94.5975C850.381 94.9433 850.388 94.727 850.398 94.6523C850.427 94.5228 850.457 94.3933 850.487 94.2638C850.547 94.0048 850.639 93.758 850.709 93.5188C851.044 92.5192 851.486 91.576 851.928 90.6328C852.227 90.0264 851.703 89.1233 850.967 88.8906C850.145 88.594 849.418 88.8808 849.099 89.5421Z" fill="#D3CBCF"/>
<path d="M871.962 103.424C871.556 105.357 870.647 107.162 869.801 108.943C869.513 109.571 870.027 110.457 870.765 110.691C871.578 110.968 872.329 110.673 872.628 110.018C873.452 108.244 874.361 106.439 874.789 104.499C874.869 104.136 874.886 103.845 874.689 103.487C874.524 103.189 874.168 102.866 873.826 102.751C873.451 102.625 873.025 102.588 872.697 102.731C872.379 102.845 872.032 103.09 871.962 103.424Z" fill="#D3CBCF"/>
<path d="M828.413 98.1572C827.692 101.57 826.523 104.861 825.802 108.274C825.664 108.94 825.93 109.744 826.761 110.013C827.453 110.261 828.478 110.056 828.615 109.343C829.337 105.93 830.505 102.639 831.226 99.2262C831.364 98.56 831.098 97.7557 830.267 97.487C829.586 97.2592 828.561 97.4636 828.413 98.1572Z" fill="#D3CBCF"/>
<path d="M851.374 112.365C851.021 114.146 851.091 116.011 850.738 117.793C850.679 118.098 850.897 118.539 851.133 118.784C851.369 119.03 851.773 119.261 852.143 119.293C852.545 119.336 852.945 119.286 853.216 119.046C853.519 118.819 853.62 118.546 853.679 118.194C854.032 116.412 853.962 114.547 854.315 112.766C854.374 112.461 854.156 112.02 853.92 111.774C853.684 111.529 853.279 111.297 852.909 111.266C852.507 111.222 852.107 111.272 851.836 111.512C851.544 111.76 851.432 112.013 851.374 112.365Z" fill="#D3CBCF"/>
<path d="M882.522 123.481C881.044 125.718 879.793 128.09 878.088 130.193C877.646 130.737 877.875 131.662 878.567 132.083C879.292 132.517 880.181 132.46 880.644 131.86C882.338 129.737 883.6 127.385 885.078 125.148C885.455 124.579 885.356 123.704 884.599 123.258C883.928 122.876 882.931 122.877 882.522 123.481Z" fill="#D3CBCF"/>
<path d="M836.305 122.698C835.821 125.033 834.867 127.205 834.362 129.547C834.283 129.908 834.266 130.199 834.463 130.555C834.626 130.852 834.981 131.175 835.323 131.289C836.016 131.537 837.042 131.332 837.18 130.618C837.664 128.283 838.617 126.111 839.122 123.769C839.202 123.408 839.219 123.117 839.022 122.761C838.858 122.464 838.503 122.141 838.162 122.027C837.48 121.799 836.454 122.004 836.305 122.698Z" fill="#D3CBCF"/>
<path d="M861.684 131.07C860.651 133.255 859.672 135.445 858.78 137.698C858.544 138.332 858.973 139.202 859.745 139.448C860.527 139.714 861.344 139.443 861.61 138.774C862.482 136.528 863.482 134.33 864.515 132.145C864.804 131.516 864.289 130.629 863.55 130.396C862.735 130.118 861.983 130.413 861.684 131.07Z" fill="#D3CBCF"/>
<path d="M837.876 144.208C836.967 146.159 836.068 148.082 835.148 150.014C834.859 150.643 835.374 151.531 836.114 151.765C836.929 152.043 837.682 151.747 837.981 151.09C838.901 149.159 839.789 147.216 840.709 145.284C840.998 144.655 840.483 143.767 839.743 143.533C838.949 143.247 838.196 143.543 837.876 144.208Z" fill="#D3CBCF"/>
<path d="M823.365 136.726C823.384 137.265 823.318 137.788 823.23 138.318C823.231 138.365 823.21 138.42 823.19 138.475C823.227 138.129 823.22 138.345 823.21 138.42C823.181 138.55 823.151 138.679 823.121 138.809C823.061 139.068 822.969 139.314 822.899 139.554C822.564 140.553 822.122 141.496 821.68 142.44C821.392 143.066 821.905 143.949 822.641 144.182C823.452 144.459 824.201 144.164 824.499 143.511C825.423 141.514 826.357 139.444 826.333 137.149C826.333 136.461 825.77 135.715 824.93 135.614C824.164 135.559 823.343 135.998 823.365 136.726Z" fill="#D3CBCF"/>
<path d="M860.17 145.871C860.021 146.571 859.785 147.254 859.421 147.888C859.473 147.797 859.514 147.687 859.587 147.588C859.15 148.368 858.573 149.078 857.942 149.737C857.732 149.956 857.663 150.387 857.732 150.697C857.812 151.027 858.075 151.41 858.388 151.608C858.722 151.798 859.109 151.945 859.493 151.902C859.898 151.851 860.184 151.676 860.448 151.414C861.646 150.12 862.629 148.665 862.987 146.958C863.067 146.594 863.084 146.301 862.886 145.942C862.721 145.643 862.364 145.318 862.02 145.203C861.644 145.076 861.216 145.039 860.886 145.182C860.589 145.29 860.24 145.535 860.17 145.871Z" fill="#D3CBCF"/>
<path d="M903.071 116.469C902.038 118.654 900.705 120.709 900.167 123.097C900.087 123.46 900.07 123.752 900.267 124.11C900.432 124.408 900.789 124.732 901.131 124.846C901.828 125.095 902.859 124.89 902.997 124.172C903.504 121.772 904.869 119.729 905.901 117.545C906.201 116.936 905.675 116.029 904.936 115.795C904.111 115.497 903.391 115.805 903.071 116.469Z" fill="#D3CBCF"/>
<path d="M826.037 80.4631C825.037 81.9678 824.275 83.6726 823.887 85.4567C823.807 85.819 823.791 86.111 823.988 86.4686C824.152 86.7666 824.509 87.0905 824.851 87.2049C825.226 87.3316 825.653 87.3681 825.981 87.2258C826.288 87.0911 826.635 86.8463 826.716 86.5314C827.014 85.1372 827.558 83.8208 828.253 82.5929C828.201 82.6831 828.16 82.7932 828.087 82.8911C828.222 82.6281 828.367 82.385 828.534 82.1342C828.732 81.8483 828.812 81.5333 828.743 81.1772C828.663 80.8486 828.401 80.4665 828.09 80.2695C827.433 79.8632 826.443 79.8637 826.037 80.4631Z" fill="#D3CBCF"/>
<path d="M889.993 73.8646C891.379 69.8893 892.679 65.8498 894.483 62.033C894.771 61.4053 894.247 60.5474 893.52 60.2866C892.717 59.9816 891.945 60.3317 891.657 60.9594C889.865 64.7961 888.575 68.8081 887.179 72.8109C886.955 73.4631 887.371 74.2645 888.142 74.5573C888.902 74.8302 889.78 74.5366 889.993 73.8646Z" fill="#D3CBCF"/>
<path d="M1741.91 727.822C1762.93 709.643 1784.45 690.039 1796.79 666.229C1802.79 654.641 1805.1 642.677 1806.32 630.371C1807.57 617.607 1807.28 603.777 1813.23 591.559C1816.56 584.723 1821.49 578.525 1827.19 572.986C1830.1 570.143 1833.19 567.49 1836.45 564.961C1838.12 563.657 1839.85 562.405 1841.56 561.176C1842.9 560.233 1844.46 558.552 1846 558.027C1848.1 557.295 1847.16 554.453 1845.05 555.184C1842.57 556.039 1841.35 557.555 1839.33 559.046C1836.49 561.167 1833.62 563.246 1830.9 565.503C1825.49 569.997 1820.55 574.963 1816.4 580.402C1812.46 585.593 1809.34 591.266 1807.45 597.232C1805.49 603.418 1804.88 609.892 1804.24 616.183C1802.9 629.386 1802.62 642.866 1797.92 655.801C1793.12 668.947 1784.35 681.128 1774.69 692.099C1764.04 704.185 1751.85 715.184 1739.47 725.885C1737.82 727.308 1740.29 729.255 1741.91 727.822Z" fill="#DCD3D7"/>
<path d="M1784.66 675.581C1768.72 681.965 1751.31 669.869 1742.61 660.252C1738.1 655.282 1733.74 649.006 1733.72 642.202C1733.69 639.634 1734.49 637.033 1736.46 634.909C1738.74 632.46 1743.25 630.068 1746.71 630.119C1750.84 630.189 1751.18 635.046 1751.51 637.824C1751.95 641.532 1751.99 645.444 1753.31 648.939C1756.03 656.137 1766.52 659.745 1774.86 656.277C1783.08 652.847 1786.36 643.698 1783.49 637.007C1780.38 629.736 1772.93 624.417 1766.49 619.535C1760.28 614.834 1751.3 609.853 1749 602.428C1747.32 596.968 1748.93 590.999 1752.18 585.821C1752.76 584.92 1754.87 580.866 1756.43 580.792C1756.52 580.8 1757.47 582.497 1757.7 582.988C1760.45 589.373 1760.41 597.459 1765.55 602.748C1770.37 607.705 1779.94 608.947 1784.57 602.169C1789.27 595.254 1787.58 587.793 1785.18 581.127C1783.72 577.06 1781.8 572.099 1784.46 567.756C1786.02 565.237 1792.16 560.244 1795.72 561.959C1799.44 563.735 1797.49 570.073 1800.3 572.675C1805.35 577.355 1814.24 567.116 1815.39 563.267C1816.76 558.542 1815.38 553.682 1814.06 549.275C1812.52 544.154 1810.83 538.973 1810.5 533.548C1810.12 527.681 1812.03 522.178 1816.59 517.393C1820.39 513.405 1825.66 510.727 1831.04 508.833C1836.09 507.031 1842.37 505.48 1847.39 507.137C1851.94 508.658 1853.27 512.185 1851.07 516.12C1848.06 521.567 1839.54 528.033 1841.84 534.403C1842.91 537.34 1846.47 539.623 1850.02 539.737C1853.93 539.86 1857.82 537.926 1861.22 536.189C1865.71 533.875 1870.02 531.091 1874.82 529.387C1880 527.557 1884.85 528.488 1889.41 530.497C1898.64 534.556 1905.19 544.203 1898.2 553.366C1891.53 562.094 1879.41 561.487 1869.49 564.139C1859.4 566.831 1842.17 579.627 1855.62 586.776C1860.74 589.496 1866.93 590.751 1872.68 592.335C1878.12 593.82 1884.69 595.315 1888.7 598.948C1892.2 602.111 1890.96 607.888 1886.17 610.391C1880.93 613.135 1873.63 611.202 1868.56 610.036C1856.46 607.304 1839.73 600.263 1827.04 607.551C1818.81 612.283 1815.94 621.515 1818.13 629.09C1820.61 637.698 1830.16 643.879 1840.66 639.703C1845.54 637.774 1849.77 634.503 1854.87 633.121C1859.64 631.831 1865.89 632.683 1869.44 635.444C1875.02 639.714 1869.65 646.956 1865 650.711C1858.4 656.055 1849.96 658.348 1841.78 656.761C1835.59 655.539 1825.23 651.726 1819.79 657.547C1813.69 664.062 1820.37 669.523 1824.69 673.821C1827.58 676.709 1828.14 679.867 1824.45 683.105C1821.21 685.958 1816.42 686.16 1812.4 685.709C1804.57 684.808 1796.58 681.623 1790.53 677.471C1788.83 676.294 1786.32 678.706 1788.05 679.894C1794.33 684.226 1802.39 687.497 1810.51 688.686C1818.11 689.807 1828.44 687.862 1830.55 679.66C1832.54 672.03 1821.22 670.101 1820.94 663.417C1820.49 653.427 1837.68 659.404 1842.82 660.2C1850.68 661.456 1859.16 658.783 1865.65 654.132C1870.98 650.317 1876.49 644.07 1875.14 637.975C1873.59 631.03 1863.01 628.405 1855.73 629.806C1850.49 630.816 1846.14 633.813 1841.41 636.059C1835.26 638.972 1828.94 638.49 1824.72 633.921C1818.43 627.054 1819.67 614.116 1830.19 609.405C1837 606.365 1845.15 607.909 1851.81 609.323C1859.27 610.928 1866.51 613.32 1874.18 614.383C1879.63 615.133 1886.21 615.183 1890.51 611.03C1894.42 607.283 1895.58 601.677 1892.38 597.834C1888.92 593.691 1882.51 591.866 1877.11 590.28C1870.95 588.501 1864.39 587.238 1858.67 584.641C1854 582.503 1852.41 579.608 1856.39 575.436C1859.52 572.142 1863.57 569.278 1868.07 567.765C1873.17 566.039 1878.54 565.591 1883.77 564.493C1893.85 562.391 1903.42 556.328 1904.59 546.629C1905.66 537.912 1898.55 530.711 1890.35 527.357C1886.19 525.654 1881.38 524.567 1876.57 525.67C1871.8 526.761 1867.43 529.292 1863.23 531.583C1859.54 533.598 1854.11 537.317 1849.67 536.582C1844.99 535.834 1844.21 531.962 1846.17 528.526C1849.38 522.849 1858.07 516.198 1855.26 509.56C1851.51 500.691 1837.38 503.154 1829.15 506.24C1818.56 510.209 1809.12 517.49 1807.22 527.829C1806.28 533.016 1807.26 538.136 1808.52 543.057C1809.88 548.363 1812.3 553.704 1812.33 559.285C1812.35 562.053 1811.54 564.821 1809.27 567.047C1808.29 568.009 1805.43 570.591 1803.76 570.591C1801.96 570.596 1801.9 568.096 1801.62 566.817C1800.62 562.287 1798.86 557.33 1792.2 558.952C1787.59 560.081 1782.97 563.223 1780.92 567.13C1778.8 571.095 1779.5 575.393 1780.66 579.25C1781.89 583.305 1784.06 587.177 1784 591.505C1783.97 594.876 1783.26 599.218 1780.48 601.976C1776.97 605.485 1771.01 603.331 1768.3 600.659C1765.56 597.977 1764.61 593.778 1763.62 590.303C1762.76 587.335 1761.18 575.088 1754.69 578.148C1750.5 580.128 1747.75 586.198 1746.34 589.801C1744.48 594.523 1744.12 599.608 1745.75 604.17C1748.38 611.527 1756.77 616.497 1763.06 621.229C1769.66 626.204 1778.73 632.048 1780.72 640.109C1781.72 644.217 1779.79 649.398 1775.75 652.205C1770.89 655.59 1764.17 654.801 1759.97 651.832C1753.02 646.916 1756.85 637.111 1753.25 630.549C1749.78 624.182 1739.85 627.568 1734.87 631.87C1729.94 636.136 1729.38 642.163 1730.81 647.41C1734.57 661.284 1749.19 673.523 1763.97 678.317C1770.69 680.496 1778.41 681.268 1785.54 678.415C1787.78 677.625 1786.81 674.728 1784.66 675.581Z" fill="#DCD3D7"/>
<path d="M-171.983 815.482C-127.395 804.277 -83.6574 786.085 -51.1255 753.399C-10.4507 712.539 8.53267 660.437 36.196 613.292C43.9931 599.984 52.7651 587.256 62.2922 574.778C68.7101 566.362 76.9187 555.175 87.8039 551.333C86.9537 550.82 86.1036 550.306 85.293 549.774C84.7524 554.47 80.8828 558.426 77.3674 561.956C73.9157 565.416 70.4301 568.749 67.2741 572.443C59.557 581.509 52.8947 591.383 46.926 601.373C38.4356 615.566 30.6077 630.542 25.0244 645.646C22.18 653.345 19.6958 661.473 20.215 669.303C20.2789 670.234 21.3175 670.745 22.3052 670.563C33.6042 668.638 44.7925 665.414 55.9236 662.38C69.2329 658.749 82.493 654.956 95.8701 651.58C101.375 650.192 106.884 648.864 112.448 647.818C115.997 647.151 119.993 646.263 123.53 646.623C124.209 646.704 125.176 646.899 125.262 646.983C125.375 647.075 125.319 646.794 125.229 647.121C125.205 647.172 124.783 648.343 124.659 648.542C123.781 649.756 119.179 651.144 117.083 651.765C102.45 656.097 87.3466 658.703 72.5524 662.046C62.4193 664.343 52.3199 666.767 42.2489 669.465C36.9476 670.882 31.6648 672.394 26.4127 673.974C24.8878 674.439 22.8972 674.767 21.5408 675.606C19.9903 676.593 18.5553 678.467 17.3465 679.79C5.59121 692.438 -2.98192 707.343 -11.8647 721.509C-21.7635 737.32 -32.7293 752.347 -46.8788 765.588C-63.4806 781.082 -82.8337 794.064 -103.883 803.606C-124.486 812.926 -146.187 819.393 -167.334 827.142C-166.54 827.375 -165.718 827.615 -164.923 827.848C-167.297 823.858 -169.359 819.134 -168.4 814.208C-167.978 812.037 -171.691 811.919 -172.113 814.091C-173.137 819.557 -171.067 824.93 -168.424 829.411C-167.935 830.231 -167.07 830.514 -166.013 830.118C-146.373 822.928 -126.322 816.86 -107.077 808.583C-87.5566 800.182 -69.553 789.159 -53.4186 775.734C-37.6691 762.668 -24.5144 747.488 -13.8062 730.943C-4.22918 716.156 4.35747 700.756 15.6797 686.833C18.069 683.914 21.0733 679.411 24.7778 677.878C29.9734 675.752 35.908 674.579 41.3004 673.099C51.7814 670.257 62.3455 667.704 72.9193 665.331C88.2726 661.857 104.094 659.315 119.188 654.529C121.93 653.656 126.196 652.523 127.796 649.962C128.776 648.395 129.54 646.089 128.182 644.662C126.58 642.956 123.26 643.131 120.883 643.287C116.317 643.597 111.743 644.522 107.24 645.497C80.9385 651.146 55.2316 660.059 28.9516 665.862C26.5937 666.377 24.2205 666.859 21.844 667.28C22.5539 667.694 23.2244 668.126 23.9343 668.54C23.475 661.315 25.8393 653.711 28.4486 646.65C31.4226 638.607 35.1483 630.755 39.1085 623.001C47.8597 605.913 57.6269 588.916 70.5962 573.799C76.8083 566.558 87.913 559.309 88.9941 549.917C89.1628 548.554 87.8317 547.87 86.4832 548.357C77.305 551.611 70.1112 559.888 64.3027 566.865C56.3287 576.414 49.059 586.523 42.3767 596.774C27.1609 620.176 15.2091 644.859 2.3896 669.199C-10.7351 694.126 -25.0813 718.401 -43.9196 740.624C-58.766 758.162 -77.316 773.027 -98.0884 784.445C-121.413 797.262 -146.805 805.767 -172.417 812.207C-174.772 812.782 -174.378 816.075 -171.983 815.482Z" fill="#D7D7D7"/>
<path d="M45.0902 670.953C45.2747 657.453 53.9654 644.175 64.5029 633.958C75.3825 623.42 89.7857 614.479 105.013 611.458C113.104 609.846 120.87 610.423 128.155 612.904C137.496 616.103 145.682 620.469 156.584 618.713C166.308 617.156 175.623 613.345 185.228 611.092C192.568 609.381 200.145 609.002 207.251 610.168C220.266 612.333 231.331 619.941 234.293 631.833C237.802 645.957 231.027 662.558 215.872 670.859C208.918 674.666 201.189 676.864 193.524 678.45C185.613 680.085 177.461 680.537 169.805 683.598C155.561 689.28 148.885 702.002 137.429 710.779C121.34 723.107 97.4469 723.666 80.155 718.453C70.99 715.696 62.1173 710.89 57.0971 703.448C52.1082 696.076 50.9327 686.898 46.6037 679.207C45.5379 677.334 41.9484 678.934 43.0422 680.815C47.0649 687.936 48.4008 696.229 52.4763 703.305C56.5831 710.451 63.4124 715.534 71.3606 719.049C87.129 726.013 107.252 727.031 125.178 720.978C133.28 718.257 140.051 713.616 145.957 707.762C151.391 702.371 155.997 696.229 162.298 691.571C170.154 685.773 178.842 684.455 188.095 682.881C196.349 681.466 204.702 679.57 212.507 676.191C228.792 669.15 238.283 655.594 238.928 640.094C239.472 626.849 232.251 615.671 219.72 610.101C205.476 603.762 189.764 605.981 174.048 610.723C168.555 612.37 163.025 614.097 157.415 615.109C150.834 616.289 145.134 615.321 139.332 613.212C130.63 610.078 122.501 606.54 112.461 607.074C96.8963 607.894 81.5157 615.589 69.3569 625.183C57.0395 634.911 46.488 647.738 42.6311 661.793C41.7148 665.102 41.3219 668.384 41.2748 671.676C41.2571 673.955 45.0817 673.144 45.0902 670.953Z" fill="#D7D7D7"/>
<path d="M64.0564 664.693C69.7292 648.136 86.9456 635.847 101.014 624.723C102.896 623.242 100.735 620.736 98.8417 622.243C84.3017 633.723 66.5584 646.554 60.6795 663.691C59.9615 665.78 63.3266 666.807 64.0564 664.693Z" fill="#D7D7D7"/>
<path d="M69.8067 671.008C85.2033 681.862 106.275 692.858 127.648 684.997C130.099 684.101 128.622 680.884 126.2 681.789C106.372 689.078 86.4293 677.921 72.2699 667.976C70.35 666.608 67.8869 669.641 69.8067 671.008Z" fill="#D7D7D7"/>
<path d="M129.704 657.594C157.283 649.137 186.636 652.391 213.361 639.975C215.675 638.887 214.282 635.803 211.968 636.891C185.598 649.168 156.494 645.865 129.257 654.209C126.866 654.909 127.26 658.339 129.704 657.594Z" fill="#D7D7D7"/>
<path d="M131.659 658.36C143.128 659.305 153.053 664.373 163.658 667.509C174.234 670.637 185.11 671.214 196.187 666.635C198.588 665.63 197.142 662.428 194.742 663.433C171.894 672.886 153.53 656.502 132.21 654.754C129.706 654.534 129.173 658.176 131.659 658.36Z" fill="#D7D7D7"/>
<path d="M132.318 652.502C136.92 638.123 155.005 632.949 168.873 629.475C171.26 628.869 170.866 625.556 168.452 626.155C153.297 629.964 133.864 635.87 128.866 651.495C128.179 653.633 131.618 654.666 132.318 652.502Z" fill="#D7D7D7"/>
<path d="M123.046 627.821C115.465 634.499 110.668 642.764 105.426 650.867C104.894 651.695 104.857 652.642 105.707 653.186C106.392 653.623 107.758 653.508 108.29 652.68C113.337 644.867 117.929 636.716 125.221 630.27C126.992 628.738 124.829 626.263 123.046 627.821Z" fill="#D7D7D7"/>
<path d="M105.694 666.217C114.339 673.278 125.954 676.776 136.839 680.43C139.119 681.211 140.689 677.759 138.41 676.979C127.814 673.411 116.604 670.036 108.17 663.164C106.362 661.709 103.915 664.771 105.694 666.217Z" fill="#D7D7D7"/>
<path d="M72.6568 670.572C70.6148 676.806 71.0288 683.577 72.4902 689.525C73.9547 695.534 76.7895 702.18 82.9362 705.188C84.9655 706.166 87.3498 703.298 85.3328 702.294C79.9006 699.642 77.418 693.723 76.1794 688.374C74.9626 683.179 74.3377 677.059 76.132 671.555C76.8106 669.436 73.3599 668.401 72.6568 670.572Z" fill="#D7D7D7"/>
<path d="M99.8036 686.003C99.2958 694.298 101.054 703.969 108.977 708.333C110.94 709.412 113.365 706.538 111.387 705.425C104.567 701.68 103.132 693.207 103.565 686.083C103.625 685.146 103.048 684.352 101.962 684.304C101.004 684.324 99.8514 685.092 99.8036 686.003Z" fill="#D7D7D7"/>
<path d="M20.5044 632.986C15.0975 628.656 12.6873 621.678 11.2039 615.267C9.68977 608.788 8.98367 601.923 9.3135 595.123C9.61252 588.255 10.6805 581.287 12.3248 574.427C13.9113 567.757 16.1436 560.714 20.68 554.846C24.5567 549.851 29.0354 546.719 35.5148 545.946C41.5622 545.225 47.6551 545.612 53.648 543.869C65.0303 540.532 71.0661 531.195 76.0941 522.067C82.248 510.871 88.4108 499.588 102.213 494.767C115.551 490.136 130.293 491.212 141.581 497.052C152.507 502.726 161.031 513.53 160.482 525.889C160.046 535.795 151.384 542.5 143.423 548.848C134.498 555.981 126.494 563.826 126.19 574.658C126.039 581.006 128.296 586.637 130.409 592.374C131.236 594.627 132.208 597.308 130.97 599.818C129.128 603.483 123.908 605.718 120.263 607.407C118.022 608.44 119.365 611.466 121.618 610.407C127.134 607.873 134.345 604.265 135.256 598.168C136 593.029 132.645 588.202 131.31 583.551C129.629 577.763 129.157 571.469 132.207 565.493C134.605 560.777 138.815 556.945 143.057 553.447C151.229 546.717 160.933 540.197 163.563 530.162C166.645 518.424 160.104 506.334 151.432 499.128C141.821 491.114 128.022 487.353 114.132 488.745C99.6191 490.192 87.5096 496.957 79.6902 508.763C73.2296 518.538 69.2766 532.537 57.5702 538.71C46.1269 544.722 32.403 539.06 22.1716 548.179C15.9856 553.683 12.5923 560.861 10.3267 568.043C7.63233 576.609 6.16133 585.443 5.64602 594.112C5.18976 601.851 5.8888 609.602 7.72069 616.944C9.46914 623.994 12.2381 631.077 18.1546 635.793C19.8343 637.23 22.1931 634.337 20.5044 632.986Z" fill="#D7D7D7"/>
<path d="M121.847 519.792C120.835 548.679 94.9983 578.967 61.965 582.648C59.5921 582.911 60.0157 586.191 62.3885 585.928C96.9196 582.076 124.478 550.134 125.506 519.88C125.589 517.771 121.926 517.624 121.847 519.792Z" fill="#D7D7D7"/>
<path d="M101.514 519.459C96.6326 532.001 89.2843 544.055 80.2082 554.719C78.7146 556.488 81.5235 558.292 83.0437 556.532C92.3407 545.646 99.8911 533.278 104.872 520.449C105.618 518.396 102.298 517.389 101.514 519.459Z" fill="#D7D7D7"/>
<path d="M49.3712 550.36C46.6031 555.317 45.8234 560.86 45.8705 566.089C45.9078 571.139 46.8255 576.361 49.2747 580.685C50.3134 582.515 53.7644 580.952 52.7257 579.123C50.4683 575.118 49.6587 570.397 49.5627 565.74C49.4601 560.963 50.266 555.897 52.7761 551.362C53.9097 549.323 50.4928 548.346 49.3712 550.36Z" fill="#D7D7D7"/>
<path d="M24.4081 562.306C22.6262 570.596 22.0305 579.086 22.8083 587.241C23.5392 595.028 25.5637 603.253 31.2984 608.881C32.839 610.392 35.8766 608.099 34.3359 606.587C28.8581 601.212 27.1364 593.34 26.4919 585.902C25.8191 578.19 26.456 570.214 28.1143 562.389C28.5922 560.23 24.8707 560.113 24.4081 562.306Z" fill="#D7D7D7"/>
<path d="M111.077 588.713C102.477 596.024 91.5782 600.906 80.6205 603.65C70.3623 606.204 59.1746 607.244 49.6473 604.192C47.4107 603.479 45.8491 606.811 48.0856 607.524C58.2224 610.785 70.1635 609.782 81.0805 607.057C92.6844 604.169 104.252 599.027 113.371 591.292C115.247 589.688 112.994 587.091 111.077 588.713Z" fill="#D7D7D7"/>
<path d="M87.8648 588.254C81.3998 592.321 77.5342 598.354 73.8429 604.409C73.3313 605.25 73.9737 606.257 74.7857 606.497C75.7873 606.793 76.7268 606.225 77.1995 605.403C80.5875 599.87 84.1413 594.445 90.0139 590.728C90.8755 590.195 90.9796 588.972 90.4385 588.345C89.8129 587.634 88.7383 587.696 87.8648 588.254Z" fill="#D7D7D7"/>
<path d="M102.127 542.907C101.65 550.396 100.362 557.969 100.776 565.4C100.896 567.54 104.579 566.785 104.46 564.645C104.074 557.485 105.339 550.228 105.791 542.994C105.847 542.075 105.282 541.294 104.225 541.245C103.303 541.236 102.183 541.987 102.127 542.907Z" fill="#D7D7D7"/>
<path d="M81.3158 525.432C82.6534 532.682 83.991 539.931 85.3286 547.181C85.7257 549.278 89.4577 548.535 89.0728 546.412C87.7352 539.162 86.3976 531.912 85.06 524.662C84.6905 522.573 80.9308 523.309 81.3158 525.432Z" fill="#D7D7D7"/>
</g>
</svg>
