<svg width="94" height="111" viewBox="0 0 94 111" fill="none" xmlns="http://www.w3.org/2000/svg">
<path d="M41.7205 110.873C41.0373 110.83 39.174 110.69 37.5799 110.563C35.9857 110.436 33.5635 110.185 32.1971 110.005C30.8307 109.826 28.4414 109.44 26.8875 109.147C25.3337 108.855 22.7288 108.265 21.0989 107.836C19.469 107.407 17.0604 106.663 15.7463 106.184C14.4323 105.705 12.3311 104.805 11.077 104.185C9.82283 103.565 8.23904 102.686 7.55743 102.232C6.87583 101.777 5.72663 100.906 5.00366 100.295C4.28068 99.6843 3.26585 98.5992 2.74846 97.8838C2.23108 97.1684 1.58563 96.062 1.31413 95.4253C1.04263 94.7885 0.715869 93.5627 0.587985 92.7014L0.355469 91.1352L0.699608 89.5394L1.04375 87.9437L1.7743 86.5757C2.17611 85.8233 3.10444 84.5798 3.83725 83.8125C4.57007 83.0451 5.94046 81.8836 6.88257 81.2314C7.82468 80.5792 9.16797 79.746 9.86768 79.3798C10.5674 79.0137 11.9648 78.3554 12.9731 77.9171C13.9815 77.4787 15.971 76.7379 17.3943 76.2707C18.8177 75.8036 21.3331 75.0924 22.9842 74.6903C24.6352 74.2881 26.7081 73.8411 27.5906 73.6969C28.4731 73.5527 29.1951 73.3586 29.1951 73.2656C29.1951 73.1726 27.7205 70.6738 25.9183 67.7128C24.116 64.7518 21.46 60.4046 20.0161 58.0525C18.5721 55.7003 16.973 52.9035 16.4625 51.8374C15.9521 50.7712 15.3083 49.2324 15.0319 48.4178C14.7555 47.6031 14.3425 46.2536 14.114 45.419C13.8855 44.5843 13.5358 42.9258 13.3368 41.7334L12.9749 39.5655L12.9772 36.0967C12.9784 34.1889 13.0947 31.8475 13.2356 30.8936C13.3765 29.9397 13.674 28.3787 13.8966 27.4248C14.1192 26.4709 14.4971 25.1051 14.7364 24.3897C14.9757 23.6742 15.5449 22.2109 16.0013 21.1377C16.4577 20.0646 17.2561 18.4549 17.7754 17.5606C18.2948 16.6663 19.1385 15.3492 19.6503 14.6338C20.1621 13.9184 21.0984 12.7071 21.7308 11.942C22.3632 11.177 23.6725 9.82424 24.6404 8.93596C25.6083 8.04767 27.2852 6.71064 28.367 5.96478C29.4487 5.21891 31.0294 4.24278 31.8795 3.7956C32.7297 3.34841 34.2872 2.65578 35.3408 2.25641C36.3944 1.85705 37.9813 1.34237 38.8674 1.11269C39.7534 0.883003 41.2702 0.568487 42.2381 0.413763C43.2059 0.259039 45.3487 0.132446 46.9998 0.132446C48.6509 0.132446 50.7936 0.259039 51.7615 0.413763C52.7294 0.568487 54.2462 0.883003 55.1322 1.11269C56.0183 1.34237 57.6052 1.85705 58.6588 2.25641C59.7123 2.65578 61.2699 3.34841 62.1201 3.7956C62.9702 4.24278 64.5509 5.21891 65.6326 5.96478C66.7143 6.71064 68.3913 8.04889 69.3592 8.93866C70.327 9.82842 71.6795 11.2299 72.3646 12.0531C73.0498 12.8763 73.9856 14.0864 74.4444 14.7422C74.9031 15.398 75.6603 16.5745 76.1271 17.3566C76.5938 18.1386 77.3923 19.7483 77.9014 20.9337C78.4104 22.1191 79.023 23.6742 79.2626 24.3897C79.5022 25.1051 79.8804 26.4709 80.103 27.4248C80.3256 28.3787 80.6224 29.9397 80.7625 30.8936C80.9025 31.8475 81.0198 34.1401 81.023 35.9883C81.0262 37.8365 80.9147 40.1491 80.7752 41.1274C80.6358 42.1058 80.2952 43.8186 80.0184 44.9338C79.7417 46.049 79.2726 47.6363 78.976 48.4613C78.6795 49.2863 77.97 50.9341 77.3993 52.1231C76.8287 53.3122 76.1028 54.6803 75.7862 55.1635C75.4697 55.6467 72.8693 59.8801 70.0076 64.571C67.1459 69.262 64.8045 73.1754 64.8045 73.2674C64.8045 73.3594 65.5265 73.5527 66.409 73.6969C67.2914 73.8411 69.2246 74.2517 70.7049 74.6093C72.1851 74.9669 74.6106 75.642 76.0949 76.1094C77.5791 76.5768 79.6225 77.3093 80.6358 77.7372C81.649 78.165 83.1364 78.8594 83.9411 79.2801C84.7457 79.7009 86.1749 80.5789 87.117 81.2312C88.0591 81.8835 89.4295 83.0451 90.1623 83.8125C90.8951 84.5798 91.8235 85.8233 92.2253 86.5757L92.9558 87.9437L93.3027 89.5523L93.6497 91.161L93.4376 92.7025C93.321 93.5503 92.9809 94.8036 92.6819 95.4875C92.3829 96.1714 91.6635 97.3557 91.0833 98.1192L90.0284 99.5075L88.2542 100.902C87.2783 101.669 85.4926 102.832 84.2858 103.487C83.079 104.142 81.0825 105.079 79.8492 105.569C78.6158 106.058 76.3076 106.844 74.7197 107.314C73.1318 107.783 70.4143 108.458 68.6808 108.812C66.9474 109.167 64.4701 109.61 63.1759 109.797C61.8816 109.985 59.3196 110.286 57.4825 110.468C55.6454 110.649 51.6269 110.832 48.5525 110.874C45.4781 110.916 42.4037 110.916 41.7205 110.873ZM58.283 103.96C59.991 103.772 62.553 103.424 63.9764 103.186C65.3997 102.948 67.4493 102.557 68.531 102.316C69.6128 102.075 71.4846 101.592 72.6906 101.244C73.8966 100.896 75.7712 100.274 76.8565 99.8629C77.9417 99.4516 79.6102 98.7236 80.5641 98.2451C81.5181 97.7667 82.8576 96.9934 83.5408 96.5265C84.224 96.0597 85.1865 95.2523 85.6797 94.7324C86.1728 94.2124 86.7551 93.42 86.9736 92.9715C87.1921 92.5229 87.3709 91.8555 87.3709 91.4883C87.3709 91.1211 87.1907 90.4507 86.9704 89.9986C86.7501 89.5465 86.0026 88.6265 85.3091 87.9542C84.6156 87.2819 83.399 86.3279 82.6054 85.8342C81.8118 85.3405 80.3382 84.5644 79.3307 84.1096C78.3231 83.6547 76.5171 82.9422 75.3173 82.5262C74.1175 82.1102 71.7038 81.4257 69.9535 81.0052C68.2033 80.5846 65.477 80.0279 63.895 79.768L61.0188 79.2954L60.8545 79.5925C60.7641 79.756 58.1355 84.0847 55.0132 89.2119L49.3364 98.5342L48.655 99.022L47.9737 99.5098H46.9998H46.0259L45.3445 99.022L44.6632 98.5342L38.9863 89.2119C35.8641 84.0847 33.2355 79.756 33.1451 79.5925L32.9808 79.2954L30.1045 79.768C28.5226 80.0279 25.7963 80.5846 24.046 81.0052C22.2958 81.4257 19.8821 82.1102 18.6823 82.5262C17.4825 82.9422 15.6764 83.6547 14.6689 84.1096C13.6614 84.5644 12.1878 85.3405 11.3942 85.8342C10.6006 86.3279 9.38395 87.2819 8.69049 87.9542C7.99702 88.6265 7.24943 89.5465 7.02917 89.9986C6.80891 90.4507 6.63074 91.0928 6.63324 91.4255C6.63574 91.7581 6.8141 92.4369 7.02959 92.9339C7.24508 93.4309 7.8253 94.2513 8.31898 94.757C8.81266 95.2626 9.77557 96.0586 10.4588 96.5258C11.142 96.993 12.4815 97.7667 13.4354 98.2451C14.3894 98.7236 16.0578 99.4516 17.1431 99.8629C18.2284 100.274 20.103 100.897 21.309 101.248C22.515 101.598 24.6197 102.126 25.9861 102.42C27.3525 102.715 29.7748 103.148 31.3689 103.383C32.9631 103.618 35.4319 103.918 36.8553 104.05C38.2786 104.182 39.9556 104.325 40.5818 104.368C41.2081 104.411 44.7483 104.414 48.449 104.374L55.1775 104.302L58.283 103.96ZM58.7008 71.1967C65.0753 60.7517 70.7351 51.4113 71.278 50.4403C71.821 49.4692 72.6279 47.6983 73.071 46.5049C73.5142 45.3114 74.0802 43.3594 74.3287 42.167L74.7805 39.9991L74.8944 37.2369L75.0084 34.4748L74.7544 32.4674C74.6148 31.3633 74.3246 29.7229 74.1095 28.8219C73.8945 27.921 73.4752 26.5064 73.1777 25.6784C72.8803 24.8504 72.2045 23.2949 71.6759 22.2217C71.1473 21.1486 70.0413 19.3336 69.2182 18.1885C68.395 17.0433 66.9639 15.3601 66.038 14.4479C65.112 13.5357 63.4542 12.1622 62.3539 11.3956C61.2536 10.629 59.7012 9.69384 58.9041 9.31746C58.107 8.94107 56.989 8.45494 56.4197 8.23717C55.8504 8.01939 54.8721 7.69101 54.2458 7.50743C53.6194 7.32385 52.222 7.02335 51.1403 6.83966C50.0586 6.65597 48.1954 6.50568 46.9998 6.50568C45.8042 6.50568 43.958 6.65309 42.8971 6.83327C41.8361 7.01344 40.3455 7.34267 39.5845 7.56488C38.8236 7.7871 37.4557 8.27163 36.5447 8.64161C35.6338 9.01159 34.1432 9.76918 33.2322 10.3251C32.3213 10.8811 30.8259 11.9462 29.9092 12.692C28.9924 13.4378 27.5277 14.8435 26.6543 15.8157C25.7808 16.788 24.5527 18.3916 23.9252 19.3792C23.2976 20.3669 22.322 22.1909 21.7571 23.4327C21.1922 24.6745 20.4881 26.5685 20.1924 27.6416C19.8967 28.7148 19.5077 30.6172 19.3279 31.8692L19.001 34.1455L19.1218 37.1807L19.2425 40.2158L19.6441 42.0586C19.865 43.0721 20.2467 44.5355 20.4923 45.3106C20.738 46.0856 21.3444 47.5978 21.84 48.6709C22.3356 49.7441 23.4713 51.7945 24.3636 53.2275C25.256 54.6605 30.6897 63.5628 36.4385 73.0103C42.1873 82.4578 46.9404 90.1875 47.0008 90.1875C47.0613 90.1875 52.3262 81.6416 58.7008 71.1967ZM44.652 52.0358C44.1009 51.9307 43.0295 51.644 42.2711 51.3986C41.5128 51.1532 40.1936 50.5474 39.3396 50.0525L37.7869 49.1526L36.0271 47.2846L34.2674 45.4166L33.4008 43.6834C32.9242 42.7302 32.3228 41.1698 32.0642 40.2158L31.5941 38.4815V35.9883V33.4951L32.0642 31.7608C32.3228 30.8069 32.9242 29.2459 33.4008 28.292L34.2674 26.5576L36.1306 24.6065L37.9939 22.6553L39.6502 21.7479C40.5611 21.2488 42.0517 20.619 42.9627 20.3482L44.6189 19.8559H46.9998H49.3807L51.0369 20.3482C51.9478 20.619 53.4385 21.2488 54.3494 21.7479L56.0056 22.6553L57.8689 24.6065L59.7322 26.5576L60.5987 28.292C61.0753 29.2459 61.6768 30.8069 61.9354 31.7608L62.4055 33.4951V35.9883V38.4815L61.9354 40.2158C61.6768 41.1698 61.0753 42.7307 60.5987 43.6846L59.7322 45.419L57.8689 47.3701L56.0056 49.3213L54.3494 50.2279C53.4385 50.7265 51.9944 51.3394 51.1404 51.5898L49.5877 52.0452L47.6209 52.136C46.5392 52.1859 45.2032 52.1408 44.652 52.0358ZM49.3508 45.4013C50.0504 45.2127 51.0887 44.7637 51.658 44.4036C52.2273 44.0435 53.0488 43.3929 53.4834 42.9579C53.918 42.5229 54.5854 41.6304 54.9664 40.9746C55.3475 40.3188 55.8071 39.1828 55.9877 38.4502C56.1684 37.7175 56.3162 36.6097 56.3162 35.9883C56.3162 35.3669 56.1684 34.2591 55.9877 33.5264C55.8071 32.7938 55.3475 31.6578 54.9664 31.002C54.5854 30.3462 53.918 29.4537 53.4834 29.0187C53.0488 28.5837 52.2273 27.9331 51.658 27.573C51.0887 27.2129 50.0504 26.7639 49.3508 26.5753C48.6511 26.3868 47.5932 26.2325 46.9998 26.2325C46.4064 26.2325 45.3485 26.3868 44.6488 26.5753C43.9492 26.7639 42.9109 27.2129 42.3416 27.573C41.7723 27.9331 40.9508 28.5837 40.5162 29.0187C40.0816 29.4537 39.4142 30.3462 39.0332 31.002C38.6521 31.6578 38.1925 32.7938 38.0119 33.5264C37.8312 34.2591 37.6834 35.3669 37.6834 35.9883C37.6834 36.6097 37.8312 37.7175 38.0119 38.4502C38.1925 39.1828 38.6521 40.3188 39.0332 40.9746C39.4142 41.6304 40.0816 42.5215 40.5162 42.9548C40.9508 43.388 41.7257 44.0166 42.2381 44.3515C42.7505 44.6865 43.7287 45.1299 44.4119 45.3369C45.0951 45.5439 46.1996 45.7202 46.8664 45.7287C47.5332 45.7372 48.6511 45.5899 49.3508 45.4013Z" fill="#274C5B"/>
</svg>
