<svg width="78" height="104" viewBox="0 0 78 104" fill="none" xmlns="http://www.w3.org/2000/svg">
<path d="M7.84811 103.543C7.31637 103.44 6.18797 103.014 5.34054 102.596C2.69071 101.29 0.830876 98.6935 0.339682 95.6133C0.0352103 93.704 0.0352103 52.4054 0.339682 50.4961C1.01017 46.2916 4.10494 43.1701 8.3037 42.4632L9.88913 42.1963L10.0128 33.4019C10.1345 24.7519 10.146 24.5709 10.7137 22.3809C13.5934 11.271 21.9134 3.29038 33.1997 0.812048C35.9104 0.216809 41.8757 0.175906 44.479 0.734709C56.0059 3.20903 64.3771 11.1537 67.2873 22.3809C67.8549 24.5709 67.8664 24.7519 67.9881 33.4019L68.1118 42.1963L69.6972 42.4632C73.896 43.1701 76.9908 46.2916 77.6612 50.4961C77.9657 52.4054 77.9657 93.704 77.6612 95.6133C77.0193 99.6387 73.9317 102.827 69.9623 103.563C68.5129 103.832 9.2392 103.813 7.84811 103.543ZM69.4998 96.9881C70.044 96.7704 70.5383 96.3565 70.8469 95.8602L71.3344 95.0762V73.0547C71.3344 51.3001 71.3291 51.0241 70.8975 50.2813C70.6571 49.8677 70.1254 49.3603 69.7158 49.1537C69.0175 48.8014 67.1067 48.778 39.0005 48.778C10.8942 48.778 8.98343 48.8014 8.28511 49.1537C7.87556 49.3603 7.34382 49.8677 7.10347 50.2813C6.67177 51.0241 6.66647 51.3001 6.66647 73.0547C6.66647 94.5746 6.6761 95.0921 7.08916 95.7751C7.32164 96.1595 7.90172 96.667 8.37822 96.9029C9.23142 97.3252 9.69648 97.3317 38.9424 97.3319C65.6714 97.332 68.7261 97.2977 69.4998 96.9881ZM38.2002 87.447C37.1888 87.2191 36.5336 86.7211 36.1322 85.8752C35.8432 85.2663 35.7774 84.4008 35.7756 81.1863L35.7733 77.2442L34.5269 76.6644C31.4726 75.2437 29.342 71.7751 29.335 68.2122C29.3232 62.1953 34.5294 57.7066 40.4519 58.6273C42.638 58.9672 44.1241 59.6828 45.6333 61.1223C47.6413 63.0376 48.6713 65.4457 48.6659 68.2122C48.6589 71.7751 46.5283 75.2437 43.4741 76.6644L42.2276 77.2442L42.2254 81.2221C42.2234 84.6888 42.1717 85.2963 41.8228 85.9487C41.1758 87.1587 39.6753 87.7793 38.2002 87.447ZM40.6437 70.9841C42.0463 70.3186 42.6377 68.1756 41.8468 66.6247C41.2472 65.4487 40.4677 65.0052 39.0005 65.0052C37.5332 65.0052 36.7538 65.4487 36.1541 66.6247C35.3744 68.1537 35.951 70.2998 37.323 70.976C38.2388 71.4273 39.7023 71.4309 40.6437 70.9841ZM61.5018 33.792C61.41 24.4586 61.3791 24.1989 59.9348 20.6328C58.4677 17.0104 55.2579 13.0172 52.0063 10.7694C45.3588 6.17397 36.6938 5.42777 29.391 8.82185C24.5092 11.0908 20.261 15.4475 18.2264 20.2717C16.6052 24.1157 16.5803 24.3096 16.4934 33.792L16.4151 42.332H39.0005H61.5858L61.5018 33.792Z" fill="#274C5B"/>
</svg>
